<?xml version="1.0" encoding="utf-8"?>
<!-- Generator: Adobe Illustrator 25.2.0, SVG Export Plug-In . SVG Version: 6.00 Build 0)  -->
<svg version="1.1" id="Layer_1" xmlns="http://www.w3.org/2000/svg" xmlns:xlink="http://www.w3.org/1999/xlink" x="0px" y="0px"
	 viewBox="0 0 1166 792" style="enable-background:new 0 0 1166 792;" xml:space="preserve">
<style type="text/css">
	.st0{opacity:5.000000e-02;fill:#7E43EF;}
	.st1{opacity:0.89;}
	.st2{fill:none;stroke:#3A2C76;stroke-miterlimit:10;}
	.st3{fill:#7E43EF;}
	.st4{fill:#FFFFFF;}
	.st5{fill:#FAFBFB;}
	.st6{fill:#3A2C76;}
	.st7{fill:#F2F1F2;}
	.st8{fill-rule:evenodd;clip-rule:evenodd;fill:#FFFFFF;}
	.st9{fill:#404041;}
	.st10{fill:#FFFFFF;stroke:#404041;stroke-width:0.5;stroke-miterlimit:10;}
	.st11{fill:#58595B;}
	.st12{opacity:7.000000e-02;}
	.st13{fill:#F1F1F2;}
	.st14{fill:#F6F5FA;stroke:#404041;stroke-width:0.5;stroke-miterlimit:10;}
	.st15{fill:none;}
	.st16{fill:#EC1C24;stroke:#404041;stroke-width:0.5;stroke-miterlimit:10;}
	.st17{fill-rule:evenodd;clip-rule:evenodd;fill:#E9DEFF;}
	.st18{fill:#DDDDDC;}
	.st19{clip-path:url(#SVGID_2_);}
	.st20{fill:none;stroke:#E5F2EA;stroke-miterlimit:10;}
	.st21{fill:none;stroke:#AEB9B9;stroke-miterlimit:10;}
	.st22{fill:#E9DEFF;}
	.st23{clip-path:url(#SVGID_4_);fill:#7E43EF;}
	.st24{clip-path:url(#SVGID_4_);}
	.st25{fill:none;stroke:#FFFFFF;stroke-miterlimit:10;}
	.st26{opacity:5.000000e-02;enable-background:new    ;}
	.st27{fill:#E64D25;}
	.st28{fill:#AF2F1B;}
	.st29{fill:#F8FAFA;}
	.st30{fill:#AA3121;}
	.st31{fill:#EFEFF0;}
	.st32{fill:#313133;}
	.st33{fill:#464749;}
	.st34{opacity:7.000000e-02;enable-background:new    ;}
	.st35{fill:#EDEEEF;}
	.st36{fill:#F4F4FA;stroke:#313133;stroke-width:0.5;stroke-miterlimit:10;}
	.st37{fill:#E50019;stroke:#313133;stroke-width:0.5;stroke-miterlimit:10;}
	.st38{fill-rule:evenodd;clip-rule:evenodd;fill:#D6D5D5;}
	.st39{clip-path:url(#SVGID_6_);}
	.st40{fill:#E1F1E6;}
	.st41{fill:#A7A9AC;}
	.st42{fill:#D6D5D5;}
	.st43{clip-path:url(#SVGID_8_);}
	.st44{clip-path:url(#SVGID_10_);fill:#231F20;}
	.st45{clip-path:url(#SVGID_10_);}
	.st46{clip-path:url(#SVGID_12_);fill:#231F20;}
	.st47{clip-path:url(#SVGID_12_);fill:#E54E26;}
	.st48{clip-path:url(#SVGID_12_);fill:#636466;}
	.st49{clip-path:url(#SVGID_12_);fill:#A7A9AC;}
	.st50{clip-path:url(#SVGID_12_);fill:#FFFFFF;}
	.st51{clip-path:url(#SVGID_12_);fill:#F9FCFE;}
</style>
<g>
	<g id="Path_285" class="st26">
		<path class="st27" d="M227.6,316.7c-4.8,13.4-7.1,27.5-6.8,41.6c0.4,20.3,7.5,41.5,20.3,57.3c13,16,34.6,21.5,50.9,34.3
			c70.3,55.2-82.8,127.7,6.4,182.3c19.4,11.9,34.9,22.8,53.6,9.7c13.9-9.8,23.4-27.5,40.5-32.6c18.9-5.7,37.1,5.7,51.1,17.3
			c16,13.3,32.2,25.8,50.5,35.9c39.4,21.7,85.9,41.9,132,36.5c15.8-1.9,30.8-7.9,43.5-17.4c37.7-27.4,43.5-82.7,96.3-73.1
			c65.3,11.9,130.7,66.5,208.4,50c70.2-14.9,42.5-134.4,8.6-184.6c-21.9-32.5-1.2-76.4,12.6-108.1c16.2-37.2,45.1-65.8,42.2-109.9
			c-2-30.2-19.4-57.9-42.2-78c-36.6-32.2-85.1-53.1-134.1-50.9c-35.3,1.6-64.6,19.1-98.5,26.4c-54.5,11.6-85.6,15-126.7-19.5
			c-30.2-25.4-64.3-49.8-103.6-58.1c-35.9-7.3-73.1,1.4-102.1,23.8c-15.4,12-26,25.8-26.9,46c-0.8,17.3,5.7,34,11,50.4
			c10,31.2,8.2,67.2-14.8,92.6c-11.1,12.3-30.7,12.6-46.4,7.3s-29.6-15.2-45.3-20.7C276,264.1,239.2,285.6,227.6,316.7z"/>
	</g>
	<g id="Path_287">
		<path class="st28" d="M569.6,370.5c-72.4-31-132-88.9-163.4-159l0.9-0.4c31.3,69.9,90.7,127.7,162.9,158.5L569.6,370.5z"/>
	</g>
	<g id="Group_897">
		<g id="Path_288">
			<path class="st27" d="M416,230.1c-10.9-8.9-18.3-21.4-20.8-35.3c-0.6-3.4-0.8-7.2,1.5-9.8c0.6-0.7,1.4-1.3,2.4-1.4
				c1.5-0.2,2.8,0.9,3.9,2c5.4,5.9,7.4,14.2,8.4,22.1S414.2,221.5,416,230.1"/>
		</g>
		<g id="Path_289">
			<path class="st27" d="M430.9,254.2c-6.5-12.5-8.3-26.9-5.1-40.6c0.8-3.3,2.2-6.9,5.2-8.4c0.8-0.5,1.8-0.6,2.7-0.4
				c1.4,0.4,2.2,2,2.7,3.4c2.6,7.6,1.2,15.9-1,23.6S432.7,245.6,430.9,254.2"/>
		</g>
		<g id="Path_290">
			<path class="st27" d="M452.8,283.8c-8-11.6-11.6-25.7-10-39.7c0.4-3.4,1.3-7.1,4.2-9c0.8-0.6,1.7-0.8,2.7-0.7
				c1.5,0.3,2.5,1.7,3.1,3c3.5,7.2,3.1,15.7,1.9,23.6S453.5,275.1,452.8,283.8"/>
		</g>
		<g id="Path_291">
			<path class="st27" d="M477.8,309.6c-8-11.6-11.6-25.7-10-39.7c0.4-3.4,1.3-7.1,4.2-9c0.8-0.6,1.7-0.8,2.7-0.7
				c1.5,0.3,2.5,1.7,3.1,3c3.5,7.2,3.1,15.7,1.9,23.6S478.5,300.9,477.8,309.6"/>
		</g>
		<g id="Path_292">
			<path class="st27" d="M515.2,339.3c-9.1-10.7-14.1-24.3-14.1-38.4c0-3.4,0.6-7.2,3.2-9.4c0.7-0.6,1.6-1,2.6-1
				c1.5,0.1,2.6,1.4,3.4,2.7c4.3,6.8,4.7,15.3,4.3,23.3S515,330.6,515.2,339.3"/>
		</g>
		<g id="Path_293">
			<path class="st27" d="M544.4,358.2c-8.9-9.4-14.8-22.6-16.2-36.5c-0.3-3.4-0.3-7.2,1.7-9.7c0.5-0.7,1.3-1.1,2.1-1.3
				c1.3-0.1,2.4,1.1,3.2,2.3c4.4,6.2,5.7,14.6,6.2,22.6S543.3,349.5,544.4,358.2"/>
		</g>
		<g id="Path_294">
			<path class="st27" d="M438.4,264.8c-14.5,2.5-29.4-0.1-42.2-7.4c-3.1-1.8-6.4-4.2-7.1-7.7c-0.2-0.9-0.1-1.9,0.3-2.8
				c0.8-1.3,2.6-1.6,4.1-1.6c8.3-0.3,16.4,3.7,23.6,8.2C424.2,258,430.2,260.5,438.4,264.8"/>
		</g>
		<g id="Path_295">
			<path class="st27" d="M456,287.2c-13.5,5.9-28.6,6.9-42.8,2.9c-3.5-1-7.2-2.6-8.7-5.7c-0.5-0.8-0.6-1.8-0.3-2.8
				c0.5-1.4,2.1-2.2,3.6-2.6c8-2.2,16.8-0.3,24.8,2.3S447.1,284.9,456,287.2"/>
		</g>
		<g id="Path_296">
			<path class="st27" d="M482.3,313.2c-12.1,8.5-26.7,12.5-41.3,11.4c-3.6-0.3-7.6-1.1-9.7-3.9c-0.6-0.7-0.9-1.7-0.9-2.6
				c0.2-1.5,1.6-2.5,3-3.2c7.4-3.8,16.4-3.6,24.8-2.7C466.6,313.1,473.1,312.8,482.3,313.2"/>
		</g>
		<g id="Path_297">
			<path class="st27" d="M519,343.1c-13.6,5.6-28.8,6.2-42.8,1.9c-3.5-1.1-7.2-2.7-8.6-5.9c-0.4-0.9-0.5-1.8-0.3-2.8
				c0.5-1.4,2.2-2.1,3.7-2.5c8.1-2.1,16.8,0.1,24.8,2.9S510.1,340.7,519,343.1"/>
		</g>
		<g id="Path_298">
			<path class="st27" d="M548.5,360.1c-9.7,11.1-22.9,18.5-37.4,21c-3.6,0.6-7.6,0.8-10.4-1.4c-0.8-0.6-1.3-1.4-1.5-2.4
				c-0.2-1.5,1-2.8,2.2-3.9c6.3-5.5,15-7.5,23.4-8.6S539.5,362,548.5,360.1"/>
		</g>
	</g>
	<g id="Path_299">
		<path class="st4" d="M926.6,626.5c0,5.2-3.6,7.3-8.1,4.7L546.3,416.3c-4.5-2.6-8.1-8.9-8.1-14.1v-316l388.4,224.3V626.5z"/>
	</g>
	<g id="Path_300">
		<path class="st27" d="M926.6,310.5v52.8L538.2,139V86.3L926.6,310.5z"/>
	</g>
	<g id="Path_301">
		<path class="st29" d="M896.2,312.9c-0.7,1.5,1.9,11.4-2.5,9.4c0,0-117.2-67.7-117.2-67.7c-3.1-1.4-1.9-6.6-2.1-9.2
			c-0.1-2.3,2.6-3.8,4.5-2.6c0,0,115.3,66.6,115.3,66.6C895.3,310.1,896.1,311.4,896.2,312.9z"/>
	</g>
	<g id="Path_302">
		<path class="st30" d="M894,322.5c4.2,2.3,1.9-7.5,2.4-9c0.6-4.7-12.6-9.3-15.2-11.6v13.2L894,322.5z"/>
	</g>
	<g id="Path_303">
		<path class="st30" d="M926.6,293.5c0-5.2-3.6-11.5-8.1-14.1L546.3,64.6c-12.2-6.6-7.1,16.4-8.1,21.7l388.4,224.3V293.5z"/>
	</g>
	<g id="Group_899" transform="translate(15.236 15.706)">
		<g id="Path_304">
			<path class="st4" d="M566.1,77.9c3.6,1.4,6.2,11.4,0,8.8C562.5,85.3,559.9,75.4,566.1,77.9z"/>
		</g>
		<g id="Path_305">
			<path class="st4" d="M554.1,70.9c3.6,1.4,6.2,11.4,0,8.8C550.5,78.4,547.9,68.4,554.1,70.9z"/>
		</g>
		<g id="Path_306">
			<path class="st4" d="M542,64c3.6,1.4,6.2,11.4,0,8.8C538.4,71.4,535.8,61.4,542,64z"/>
		</g>
	</g>
	<g id="Group_901" transform="translate(37.378 64.784)">
		<g id="Group_900">
			<g id="Path_307">
				<path class="st30" d="M622.7,108.6c7.8,2.9,13.6,24.9,0,19.2C614.9,125,609.1,102.9,622.7,108.6z"/>
			</g>
			<g id="Path_308">
				<path class="st30" d="M660.8,130.6c7.8,2.9,13.6,24.9,0,19.2C652.9,147,647.1,124.9,660.8,130.6z"/>
			</g>
			<g id="Path_309">
				<path class="st30" d="M584.6,86.6c7.8,2.9,13.6,24.9,0,19.2C576.8,103,571,80.9,584.6,86.6z"/>
			</g>
			<g id="Path_310">
				<path class="st30" d="M546.5,64.6c7.8,2.9,13.6,24.9,0,19.2C538.7,81,532.9,58.9,546.5,64.6z"/>
			</g>
		</g>
	</g>
	<g id="Group_909" transform="translate(22.852 118.729)">
		<g id="Group_908">
			<g id="Group_902" transform="translate(228.491 131.921)">
				<g id="Path_311">
					<path class="st31" d="M636.7,116.7c-118.2-60.3-97.1-93.7-98.5,39.3c0,5.2,3.6,11.5,8.1,14.1c118.2,60.3,97.1,93.7,98.5-39.3
						C644.8,125.6,641.2,119.3,636.7,116.7z"/>
				</g>
			</g>
			<g id="Group_903">
				<g id="Path_312">
					<path class="st31" d="M735.7,173.9L546.3,64.6c-4.5-2.6-8.1-0.5-8.1,4.7V156c0,5.2,3.6,11.5,8.1,14.1l189.4,109.4
						c4.5,2.6,8.1,0.5,8.1-4.7V188C743.8,182.8,740.2,176.5,735.7,173.9z"/>
				</g>
			</g>
			<g id="Group_907" transform="translate(175.175 232.995)">
				<g id="Group_904">
					<g id="Path_313">
						<path class="st31" d="M690,147.6l-143.7-83c-4.5-2.6-8.1-0.7-8.1,4.1c-7.7,13.9,146.1,89.3,151.8,96.5
							C703.3,170.9,697.7,150.5,690,147.6z"/>
					</g>
				</g>
				<g id="Group_905" transform="translate(0 30.777)">
					<g id="Path_314">
						<path class="st31" d="M690,147.6l-143.7-83c-4.5-2.6-8.1-0.7-8.1,4.1c-7.7,13.9,146.1,89.3,151.8,96.5
							C703.3,170.9,697.7,150.5,690,147.6z"/>
					</g>
				</g>
				<g id="Group_906" transform="translate(0 61.554)">
					<g id="Path_315">
						<path class="st31" d="M690,147.6l-143.7-83c-4.5-2.6-8.1-0.8-8.1,4.1c-7.7,13.9,146.1,89.3,151.8,96.5
							C703.3,170.9,697.7,150.5,690,147.6z"/>
					</g>
				</g>
			</g>
		</g>
	</g>
	<g id="Path_316">
		<path class="st8" d="M506.2,493.7l2.1,2.4c0.8,0.7,1.5,1.4,2.1,2.3v-0.1c-0.3-2.1-0.4-4.1-0.5-6.2l2.8,1.8v0.2
			c0,1.1-0.1,2.9-0.3,5.4h0.7c1.4,0,2.8,0.2,4.2,0.5l1,3.8c-1.6-0.4-3.3-0.9-5.2-1.5c1.3,2.1,2.4,4.2,3.4,6.4l-2.1,0.7h-0.2
			c-0.9-1.9-1.7-3.8-2.4-5.7c-0.1-0.4-0.3-0.7-0.5-1c-0.8,1.3-1.7,2.5-2.7,3.6l-2.5-3.5c1-1,2.1-1.8,3.4-2.4
			c0.1-0.1,0.1-0.1,0.2-0.1c-1.6-1.1-3.2-2.4-4.6-3.7c-0.2-0.1-0.3-0.3-0.6-0.6l1-2.8C505.8,493.3,506,493.5,506.2,493.7z"/>
	</g>
	<g id="Path_317">
		<path class="st8" d="M487.1,483.2c1.5,1.4,2.9,2.8,4.2,4.2c-0.1-0.3-0.1-0.6-0.1-0.9c-0.2-1.8-0.3-3.5-0.3-5.3l2.8,1.8
			c0,0.4,0,0.8-0.1,1.1c0,1.1-0.1,2.6-0.2,4.4h1c1,0.1,2.1,0.2,3.4,0.5h0.3l1,3.9c-0.5-0.2-1.1-0.3-1.6-0.5c-1.1-0.3-2.3-0.6-3.5-1
			c0.7,1.1,1.8,3.2,3.4,6.4l-2.4,0.7c-0.9-1.8-1.6-3.6-2.3-5.5c-0.2-0.4-0.4-0.7-0.6-1.1v-0.1c-0.7,1.1-1.4,2.1-2.3,3
			c-0.2,0.1-0.3,0.3-0.5,0.5l-2.5-3.4c1-1,2.3-1.9,3.6-2.5c-1.9-1.3-3.6-2.7-5.2-4.3l1-2.8C486.8,482.5,487,482.9,487.1,483.2z"/>
	</g>
	<g id="Path_318">
		<path class="st8" d="M587.2,536.6c0,1.1-0.2,3-0.5,5.7c1.6,0,3.2,0.1,4.7,0.5l1,3.9c-1.5-0.5-3.2-1-5-1.6c0.6,1.1,1.7,3.3,3.3,6.4
			l-2.5,0.7c-0.8-1.7-1.6-3.9-2.6-6.8c-0.8,1.3-1.8,2.5-2.8,3.6l-2.6-3.5c1.1-1,2.3-1.9,3.7-2.5c-1.9-1.3-3.6-2.7-5.3-4.3l1-2.8
			c1.8,1.7,3.4,3.4,4.8,5.1c-0.2-2.6-0.3-4.6-0.3-6.2L587.2,536.6z"/>
	</g>
	<g id="Path_319">
		<path class="st8" d="M568.7,531.9c1.5,0.1,3.1,0.2,4.6,0.5l0.9,3.9c-1.7-0.4-3.3-1-5-1.6c0.6,1.1,1.7,3.2,3.4,6.4l-2.5,0.7
			c-0.8-1.7-1.6-3.9-2.6-6.8c-0.8,1.3-1.7,2.4-2.8,3.5l-2.5-3.5c1-1,2.2-1.8,3.5-2.4c-1.8-1.3-3.5-2.7-5.1-4.3l0.9-2.8
			c1.8,1.5,3.4,3.2,5,5c-0.3-2-0.5-4-0.6-6.1l3,1.7C569.1,527.3,568.9,529.3,568.7,531.9z"/>
	</g>
	<g id="Path_320">
		<path class="st8" d="M550.5,521.4c1.6,0,3.2,0.1,4.7,0.5l1,3.9c-1.6-0.5-3.3-1-5.2-1.7c0.8,1.2,1.9,3.4,3.5,6.5l-2.5,0.6
			c-1.1-2.1-2-4.4-2.7-6.6c-0.8,1.2-1.7,2.4-2.7,3.5l-2.5-3.4c1.1-1,2.3-1.9,3.6-2.6c-1.9-1.2-3.6-2.6-5.2-4.3l1-2.7
			c1.7,1.7,3.3,3.4,4.8,5.1c-0.3-2.1-0.5-4.2-0.6-6.3l2.9,1.9C550.8,516.8,550.7,518.7,550.5,521.4z"/>
	</g>
	<g id="Path_321">
		<path class="st8" d="M528.6,508.7c-0.3-2-0.5-4-0.6-6.1l3,1.7v0.3c0,1.1-0.1,2.9-0.3,5.2h0.6c1.4,0.1,2.8,0.4,4.2,0.7l0.9,3.8
			c-1.7-0.4-3.3-0.9-5-1.6c0.6,1.1,1.7,3.2,3.4,6.5l-2.5,0.6c-0.7-1.4-1.5-3.4-2.4-5.9c-0.2-0.2-0.3-0.5-0.3-0.8
			c-0.7,1.2-1.6,2.3-2.7,3.3c0,0.1,0,0.1-0.1,0.1c0,0,0,0,0,0l-2.4-3.4c1-0.9,2.1-1.7,3.3-2.4l0.1-0.1c-1.2-0.8-2.3-1.7-3.4-2.7
			c-0.6-0.4-1.2-0.9-1.7-1.5l0.9-2.9C525.4,505.2,527.1,506.9,528.6,508.7z"/>
	</g>
	<g id="Path_322">
		<path class="st8" d="M485.4,485.1c1.6,1.6,3.3,3,5.2,4.3c-1.3,0.6-2.6,1.4-3.6,2.5l2.5,3.4c0.2-0.1,0.3-0.3,0.5-0.5
			c0.8-1,1.6-2,2.3-3v0.1c0.2,0.4,0.3,0.8,0.6,1.1c0.6,1.9,1.4,3.7,2.3,5.5l2.4-0.7c-1.6-3.2-2.7-5.4-3.4-6.4c1.2,0.4,2.4,0.7,3.5,1
			c0.5,0.1,1.1,0.3,1.6,0.5l-1-3.9h-0.3c-1.3-0.2-2.4-0.4-3.4-0.5h-1c0.2-1.8,0.2-3.3,0.2-4.4c0.1-0.4,0.1-0.7,0.1-1.1l-2.8-1.8
			c0,1.8,0.1,3.5,0.3,5.3c0,0.3,0,0.6,0.1,0.9c-1.3-1.4-2.7-2.7-4.2-4.2c-0.1-0.4-0.4-0.7-0.7-0.9L485.4,485.1z"/>
	</g>
	<g id="Path_323">
		<path class="st8" d="M504.6,495.9c0.2,0.2,0.4,0.4,0.6,0.6c1.5,1.3,3,2.6,4.6,3.7c-0.1,0-0.2,0-0.2,0.1c-1.2,0.6-2.4,1.4-3.4,2.4
			l2.5,3.5c1-1.1,1.9-2.3,2.7-3.6c0.2,0.3,0.4,0.7,0.5,1c0.6,2,1.4,3.9,2.4,5.7h0.2l2.1-0.7c-1-2.2-2.1-4.4-3.4-6.4
			c1.9,0.6,3.6,1.1,5.2,1.5l-1-3.8c-1.4-0.3-2.8-0.4-4.2-0.5h-0.7c0.2-2.6,0.3-4.4,0.3-5.4v-0.2L510,492c0,2.1,0.2,4.1,0.5,6.2v0.1
			c-0.6-0.8-1.3-1.6-2.1-2.3l-2.1-2.4c-0.1-0.2-0.3-0.4-0.6-0.6L504.6,495.9z"/>
	</g>
	<g id="Path_324">
		<path class="st8" d="M522.7,506.5c0.5,0.5,1.1,1,1.7,1.5c1.1,1,2.2,1.9,3.4,2.7l-0.1,0.1c-1.2,0.6-2.3,1.4-3.3,2.4l2.4,3.4
			c0.1,0,0.1,0,0.1-0.1c0,0,0,0,0,0c1.1-0.9,2-2,2.7-3.3c0.1,0.3,0.2,0.5,0.3,0.8c0.9,2.5,1.7,4.4,2.4,5.9l2.5-0.6
			c-1.7-3.3-2.8-5.5-3.4-6.5c1.6,0.6,3.3,1.2,5,1.6l-0.9-3.8c-1.4-0.3-2.8-0.5-4.2-0.7h-0.6c0.2-2.3,0.3-4.1,0.3-5.2v-0.3l-3-1.7
			c0,2,0.2,4.1,0.6,6.1c-1.6-1.8-3.2-3.5-5-5.1L522.7,506.5z"/>
	</g>
	<g id="Path_325">
		<path class="st8" d="M547.9,513.9c0,2.1,0.2,4.2,0.6,6.3c-1.5-1.7-3.1-3.3-4.8-5.1l-1,2.7c1.5,1.6,3.3,3.1,5.2,4.3
			c-1.3,0.7-2.5,1.5-3.6,2.6l2.5,3.4c1-1.1,1.9-2.2,2.7-3.5c0.7,2.3,1.6,4.5,2.7,6.6l2.5-0.6c-1.6-3.2-2.7-5.3-3.5-6.5
			c1.9,0.7,3.6,1.2,5.2,1.7l-1-3.9c-1.6-0.3-3.1-0.5-4.7-0.5c0.2-2.7,0.3-4.6,0.3-5.6L547.9,513.9z"/>
	</g>
	<g id="Path_326">
		<path class="st8" d="M566,524.5c0,2,0.2,4.1,0.6,6.1c-1.5-1.8-3.2-3.4-5-5l-0.9,2.8c1.6,1.6,3.3,3,5.1,4.3
			c-1.3,0.6-2.5,1.4-3.5,2.4l2.5,3.5c1.1-1.1,2-2.2,2.8-3.5c1,2.9,1.8,5.1,2.6,6.8l2.5-0.7c-1.7-3.2-2.8-5.4-3.4-6.4
			c1.6,0.6,3.3,1.1,5,1.6l-0.9-3.9c-1.5-0.2-3.1-0.4-4.6-0.5c0.2-2.6,0.3-4.5,0.3-5.7L566,524.5z"/>
	</g>
	<g id="Path_327">
		<path class="st8" d="M584.6,541.1c-1.4-1.7-3-3.3-4.8-5.1l-1,2.8c1.7,1.5,3.4,3,5.3,4.3c-1.4,0.6-2.6,1.4-3.7,2.5l2.6,3.5
			c1.1-1.1,2-2.3,2.8-3.6c1,2.9,1.8,5.1,2.6,6.8l2.5-0.7c-1.6-3.2-2.7-5.3-3.3-6.4c1.8,0.6,3.5,1.1,5,1.6l-1-3.9
			c-1.6-0.3-3.1-0.5-4.7-0.5c0.3-2.7,0.5-4.6,0.5-5.7l-2.9-1.7C584.3,536.5,584.4,538.6,584.6,541.1z"/>
	</g>
	<g id="Group_925" transform="translate(112.574 372.293)">
		<g id="Group_912" transform="translate(183.787 333.525)">
			<g id="Group_911">
				<g id="Path_328">
					<path class="st32" d="M-86.3-26.8l-2.1,13.1h26.5c0,0-6.2-6.7-13.3-8.7L-86.3-26.8z"/>
				</g>
			</g>
		</g>
		<g id="Group_913" transform="translate(180.654 163.106)">
			<g id="Path_329">
				<path class="st4" d="M-72.8,148.4c0,0-6.1,0-10.5-1.8c0,0,6.6-44.7,5.2-64.8S-88.3-26.8-88.3-26.8l83.9,0.9
					c0,0,13.5,81.2,18.3,99.5s2.5,74.4,2.5,74.4l-11.7,0.1c0,0-15.7-56.6-20.5-69.7s-21.5-53.6-21.5-53.6S-47.2,71-49.8,87.6
					S-67.1,135.6-72.8,148.4z"/>
				<path class="st32" d="M-72.7,148.7h-0.2c-0.1,0-6.2,0-10.6-1.8l-0.2-0.1l0-0.2c0.1-0.4,6.6-44.9,5.2-64.7
					C-79.7,62.1-88.5-25.9-88.6-26.7l0-0.3l84.3,0.9l0,0.2c0.1,0.8,13.6,81.4,18.3,99.5c4.8,18.1,2.5,73.9,2.5,74.5l0,0.2l-12.1,0.1
					l-0.1-0.2C4.3,147.6-11.3,91.4-16,78.5c-4.4-12-18.9-47.3-21.2-52.9c-1.3,6.2-9.9,46.8-12.3,62c-2.4,15.3-14.9,42.9-21.5,57.6
					c-0.5,1.2-1,2.3-1.5,3.3L-72.7,148.7z M-83,146.5c3.9,1.5,9.1,1.7,10.1,1.7c0.4-1,0.9-2,1.4-3.1c6.7-14.8,19.1-42.2,21.5-57.5
					c2.6-16.4,12.4-62.4,12.5-62.8l0.2-0.8l0.3,0.7c0.2,0.4,16.8,40.7,21.5,53.6c4.6,12.6,19.5,65.9,20.5,69.5l11.2-0.1
					c0.2-4,2.1-56.6-2.5-74.1C9,56-3.9-21.1-4.7-25.6L-88-26.5c0.5,5.5,8.9,89.1,10.2,108.4C-76.5,101-82.6,143.2-83,146.5z"/>
			</g>
		</g>
		<g id="Path_330">
			<path class="st33" d="M143.2,187.5l3.4-18.1c0.5,7,1.4,13.9,2.6,20.7c2.2,11.4,7.3,30,7.3,30L143.2,187.5z"/>
		</g>
		<g id="Group_915" transform="translate(272.955 337.839)">
			<g id="Group_914">
				<g id="Path_331">
					<path class="st32" d="M-87.7-26.6l-0.6,7.7h26.2c-2.8-4.2-7.2-7.1-12.2-7.9L-87.7-26.6z"/>
				</g>
			</g>
		</g>
		<g id="Path_332" class="st34">
			<path class="st33" d="M189.3,310.7c-1.2-9.3-3.1-24-3.9-29.4c-1.2-8.2-4.6-14.8-6.3-29.9c-1.5-14.1-18.4-25.8-21.1-28.4
				c4.2,10.4,5.2,12.9,7.2,18.5c3.6,9.8,13.4,44.2,18,60.7c1.5,5.5,2.5,8.5,2.5,8.5l1.3,0.1L189.3,310.7z"/>
		</g>
		<g id="Path_333" class="st34">
			<path class="st33" d="M110.9,229.8c-1.6-8.6-5.7-26.6-6.5-29.8c-0.7-2.7-3-47.9-3.8-63.5l-7.9-0.1c0,0,8.9,88.6,10.2,108.6
				s-5.2,64.8-5.2,64.8c1.4,0.4,2.8,0.7,4.2,0.9c2.3-13.9,6.8-39.4,9.1-45.3C114.2,257.2,112.6,238.4,110.9,229.8z"/>
		</g>
		<g id="Path_334">
			<path class="st33" d="M94.7,160.5c0.7,1.1,9.9,0.1,11.2,0.1c6.4,0.1,12.7,0.6,19.1,0.3c6.6-0.3,13.2-1.1,19.7-2.3
				c6.1-1.1,13.1-2.2,18.8-4.8c5.1-2.4,10-5.7,14.9-8.5l-75.8,7.8l-8.2,4.3L94.7,160.5z"/>
		</g>
		<g id="Path_335">
			<path class="st4" d="M225.3,69l-9.9,5.9c0,0-11,10.1-12.1,10.5c-1.1,0.4-9.4-18.7-23.3-39.3c-6.3-9.2-15.8-18.4-27.4-18.2
				c-7.4,0.1-16.2,1.2-23.6,0.8c0,0-33.3,5.1-47.5,28.7c-14.9,24.9-7.9,47.5,3.9,58.5c2.1,2,3.9,3.5,5.2,4.7
				c-0.3,12.1,0.3,25.1,2.6,36.2c0,0,50.5,7.5,85.1-11.5c0.6-0.3-1.3-12.2-1.5-13.6c-0.4-4.9-0.7-9.8-0.9-14.7s-0.3-9.8-0.4-14.7
				c-0.1-4.6-0.6-9.3-0.5-13.9c11.8,14.3,24,21.4,36.6,14.5C226.5,94.6,225.3,69,225.3,69z"/>
			<path class="st32" d="M116.9,158.4c-13.7,0-23.4-1.4-23.6-1.4l-0.2,0l0-0.2c-2.1-9.7-3-21.8-2.6-36.1c-1.4-1.3-3.2-2.8-5.1-4.6
				c-6.4-5.9-10.8-14.7-12-24.1c-1.5-11.3,1.3-23.3,8.1-34.6c14.1-23.5,47.3-28.8,47.7-28.8c4.6,0.2,9.7-0.1,14.6-0.4
				c3.2-0.2,6.2-0.4,9-0.4c0.1,0,0.3,0,0.4,0c12.9,0,22.5,11.4,27.2,18.3c8.3,12.3,14.8,24.3,18.6,31.5c2.2,4.1,3.9,7.3,4.5,7.7
				c1-0.5,7.6-6.5,11.9-10.4l10.3-6.1l0,0.4c0,0.3,1,25.9-13.8,34c-11.4,6.3-23.4,1.7-36.5-14c0,2.5,0.1,5.1,0.3,7.6
				c0.1,1.9,0.2,3.8,0.3,5.7c0.1,5.6,0.3,10.3,0.4,14.7c0.2,5.3,0.5,10.1,0.9,14.7c0,0.4,0.2,1.5,0.4,3c1.3,9.5,1.3,10.6,0.9,10.8
				C159.2,156.1,134.7,158.4,116.9,158.4z M93.5,156.5c3.3,0.5,51.6,6.7,84.7-11.5c0.2-0.8-0.7-7.2-1.1-10.4c-0.2-1.5-0.4-2.6-0.4-3
				c-0.4-4.6-0.7-9.4-0.9-14.7c-0.2-4.4-0.3-9.1-0.4-14.7c0-1.9-0.1-3.8-0.3-5.7c-0.2-2.7-0.3-5.5-0.3-8.3l0-0.7l0.4,0.5
				c13.1,15.9,24.9,20.6,36.3,14.4c13.5-7.4,13.6-29.8,13.5-33.2l-9.6,5.7c-1.1,1-11,10.1-12.1,10.5c-0.6,0.2-1.3-1-5-7.9
				c-3.8-7.2-10.3-19.2-18.6-31.5c-4.6-6.9-14.3-18.3-27.2-18.1c-2.8,0.1-5.8,0.2-9,0.4c-4.9,0.3-10,0.6-14.6,0.4
				c-0.3,0-33.3,5.3-47.3,28.6c-14.5,24.2-8.5,46.7,3.9,58.1c2,1.9,3.8,3.4,5.2,4.7l0.1,0.1l0,0.1C90.6,134.8,91.5,146.9,93.5,156.5
				z"/>
		</g>
		<g id="Group_918" transform="translate(188.232 95.718)">
			<g id="Group_917">
				<g id="Group_916">
					<g id="Path_336">
						<path class="st33" d="M-81.4,22c0,0-17-23.3,2.2-48.8c0,0-12.9,23.4,0.4,47.2L-81.4,22z"/>
					</g>
				</g>
			</g>
		</g>
		<g id="Group_919" transform="translate(258.95 90.443)">
			<g id="Path_337">
				<path class="st33" d="M-84.1,4.9l-4.2-31.7l6.2,16.8L-84.1,4.9z"/>
			</g>
		</g>
		<g id="Group_920" transform="translate(208.253 74.413)">
			<g id="Path_338">
				<path class="st33" d="M-59.1-21h3.6c0.5,0.1,1-0.3,1-0.8c0,0,0,0,0,0l0.8-3.5c0.1-0.6,0-0.9-0.5-1c-1.8-0.3-3.5-0.5-5.3-0.5
					c-2.1-0.1-4.2,0.3-6.2,1c-2.1,0.9-3.6,2.9-4.3,6c-0.8,3.6-1.7,9-2.6,16.2c-0.6,5.4-1.5,10.8-2.6,16.1c-0.5,2.2-1.6,2.5-4.5,2.5
					h-3.6c-0.5-0.1-1,0.3-1.1,0.8l-0.7,3.5c-0.2,0.6,0,0.9,0.5,1c1.7,0.3,3.5,0.5,5.3,0.5c2.1,0.1,4.2-0.2,6.2-1
					c2.2-0.9,3.7-2.9,4.5-6c0.8-3.3,1.6-8,2.4-14.2c1.4-1,3.1-2.3,3.4-2.4c0.2-0.2,0.2-0.4,0.1-0.7c-0.2-0.2-1.7-1.4-2.8-2.4
					c0.7-5.5,1.4-9.7,2.1-12.6C-63.1-20.6-62.1-21-59.1-21z"/>
			</g>
			<g id="Path_339">
				<path class="st33" d="M-78.7,6.8h0.5c0.2,0,0.3-0.2,0.4-0.5l0.5-4.9c0-0.2,0-0.4-0.2-0.6L-82-2.1l5.1-2.9
					c0.2-0.1,0.3-0.3,0.3-0.6l0.5-4.9c0-0.3,0-0.5-0.3-0.5h-0.5c-0.2,0-0.3,0-0.4,0.1l-10.4,6.5c-0.2,0.1-0.3,0.3-0.3,0.5l-0.4,3.5
					c0,0.2,0,0.4,0.2,0.5l9.1,6.5C-79,6.7-78.8,6.8-78.7,6.8z"/>
			</g>
			<g id="Path_340">
				<path class="st33" d="M-50.5-4.4l-9.1-6.5c-0.1-0.1-0.2-0.1-0.4-0.1h-0.5c-0.2,0-0.3,0.2-0.4,0.5l-0.5,4.9c0,0.2,0,0.4,0.2,0.6
					l4.5,2.9l-5.1,2.9c-0.2,0.1-0.3,0.3-0.3,0.6l-0.5,4.9c0,0.3,0,0.5,0.3,0.5h0.5c0.1,0,0.3,0,0.4-0.1l10.4-6.5
					c0.2-0.1,0.3-0.3,0.3-0.5l0.4-3.5C-50.3-4.1-50.3-4.3-50.5-4.4z"/>
			</g>
		</g>
		<g id="Path_341" class="st34">
			<path class="st33" d="M94,120.4c-5.2-8.7-11.1-16.8-12.4-27C80,80,82.5,66.5,89,54.7c2.5-4.8,6.1-8.9,10.5-12.2
				c4.6-3.5,9.5-6.7,14.7-9.4c-10.8,3.9-24,10.4-32.1,23.9c-14.9,24.9-7.9,47.5,3.9,58.5c2.2,2,3.7,3.9,5.1,5.1l4.2,3.4
				C94.4,123.3,94.5,121.3,94,120.4z"/>
		</g>
		<g id="Path_342">
			<path class="st35" d="M91,120.6c-0.3,12.1,0.3,25.1,2.6,36.2c0,0,2.7,0.2,7.4,0.6L98.2,126L91,120.6z"/>
		</g>
		<g id="Path_344" class="st34">
			<path class="st33" d="M202.6,100c-4.2-0.5-7.7-2.6-11.3-4.6c-3.5-1.9-7-3.6-10.6-5.1c-1.3-0.6-4.6-1.3-5.4-2.4
				c11.8,14.3,24,21.4,36.6,14.4c6.7-3.7,9.8-10.9,11.5-17.7c-0.8,0.8-1.5,1.6-2.1,2.5C215.3,92.8,212.4,101.3,202.6,100z"/>
		</g>
		<g id="Line_2">
			
				<rect x="92.9" y="119.5" transform="matrix(0.5821 -0.8131 0.8131 0.5821 -60.7222 126.9843)" class="st32" width="0.5" height="6.1"/>
		</g>
		<g id="Ellipse_2">
			<circle class="st15" cx="52.1" cy="160.5" r="31.5"/>
		</g>
		<g id="Path_347">
			<path class="st32" d="M287.9,32.2l9.9-5.9c3.9-2.3,5.1-7.7,2.5-12s-7.8-5.9-11.7-3.6L85.4,130.5c-17.1-19.2-46.6-20.9-65.9-3.8
				c-19.2,17.1-20.9,46.6-3.8,65.9s46.6,20.9,65.9,3.8c14.1-12.6,19.2-32.4,13-50.2l144.8-85.3L254.2,86l18.2-10.7l-9.8-16.6
				l12.1-7.2l9.8,16.6l18.2-10.7L287.9,32.2z M66.5,188.7c-15,8.8-34.3,3.8-43.1-11.1c-8.8-15-3.8-34.3,11.1-43.1
				c15-8.8,34.3-3.8,43.1,11.1C86.5,160.6,81.5,179.9,66.5,188.7L66.5,188.7z"/>
		</g>
		<g id="Group_922" transform="translate(213.065)">
			<g id="Group_921">
				<g id="Path_348">
					<path class="st32" d="M-81.1,18.7c0,0-6.9-18-7.2-27c-0.3-6.8,3.3-14.1,10-16.3c1.7-0.6,3.6-0.7,5.4-0.3c1.3,0.4,2.6,0.6,4,0.8
						c4.9,0.4,10.7-2.9,15.6-2.6c3.9,0.3,5.9,3,7.1,6.5c1.5,4.6-2.1,9.4-6.5,10.7c-2.3,0.5-4.6,0.8-6.9,0.9
						C-73-7.4-78.4,7.3-81.1,18.7z"/>
				</g>
			</g>
		</g>
		<g id="Path_349">
			<path class="st4" d="M160.9-11.4c-1.7,0.2-3.4,0.6-5,1c-4.2,1.3-8.3,3-12.1,5.3c-1.5,0.9-6.5,6.1-5.5,8.1c-0.3-0.6-0.6-1.1-1-1.6
				c-3.3-4.5-7.7,1.6-5.6,6.2c0.8,1.8,1.9,2.4,2.9,2.4c-0.1,0.1-0.3,0.3-0.4,0.4L129,28.7c0,0,4.4,4.3,9.5,3.4
				c5-0.9,6.1-3.9,6.1-3.9l0.9-3.2c0,0,7.7,1.8,11.8-5.2S160.9-11.4,160.9-11.4z"/>
			<path class="st32" d="M137.1,32.5c-4.5,0-8.1-3.5-8.3-3.6l-0.1-0.1l5.3-18.5c0,0,0,0,0.1-0.1c-1.1-0.3-1.9-1.1-2.6-2.5
				c-1.4-3-0.2-6.6,1.8-7.8c1.4-0.8,2.9-0.4,4.2,1.3c0.2,0.2,0.3,0.4,0.4,0.7c0.5-2.5,4.4-6.4,5.7-7.2c3.8-2.3,7.9-4,12.2-5.3
				c1.7-0.5,3.4-0.8,5.1-1l0.3,0l0,0.3l-0.2,0l0.2,0c0,1,0.6,24.5-3.6,31.4c-3.8,6.3-10.6,5.6-11.9,5.4l-0.9,3
				c0,0.1-1.1,3.2-6.3,4.1C138.1,32.5,137.6,32.5,137.1,32.5z M129.3,28.6c0.7,0.6,4.7,4,9.2,3.3c4.8-0.8,5.9-3.7,5.9-3.7l1-3.4
				l0.2,0.1c0.1,0,7.5,1.6,11.6-5.1c3.9-6.5,3.6-28,3.5-30.9c-1.6,0.2-3.2,0.6-4.7,1c-4.2,1.2-8.3,3-12,5.2c-1.6,1-6.3,6-5.4,7.8
				l-0.5,0.2c-0.3-0.5-0.6-1.1-0.9-1.5c-1.1-1.4-2.3-1.8-3.5-1.1c-1.8,1.1-2.9,4.4-1.6,7.1c0.7,1.5,1.6,2.2,2.7,2.3l0.6,0l-0.6,0.5
				c-0.1,0.1-0.2,0.2-0.3,0.2L129.3,28.6z"/>
		</g>
		<g id="Path_350">
			<path class="st33" d="M145.4,24.7c-2.9-0.6-5.7-1.3-8.4-2.4c2.3,1.9,5,3.3,7.8,4L145.4,24.7z"/>
		</g>
		<g id="Group_923" transform="translate(303.265 87.297)">
			<g id="Path_351">
				<path class="st4" d="M-88.3-12.1l10.4-6.2c0,0-0.6-9.3-5.8-8.4S-87.8-15.6-88.3-12.1z"/>
				<path class="st32" d="M-88.7-11.6l0.1-0.5c0.1-0.8,0.2-1.9,0.2-3.3c0.1-4.6,0.3-10.9,4.6-11.6c1.1-0.2,2.2,0.1,3.1,0.8
					c2.7,2.1,3,7.6,3,7.9l0,0.2l-0.1,0.1L-88.7-11.6z M-83.1-26.5c-0.2,0-0.4,0-0.6,0.1c-3.8,0.6-4,6.7-4.1,11.1
					c0,1.1-0.1,2.1-0.1,2.8l9.8-5.9c-0.1-0.9-0.6-5.5-2.8-7.3C-81.7-26.3-82.3-26.5-83.1-26.5z"/>
			</g>
		</g>
		<g id="Group_924" transform="translate(183.979 144.494)">
			<g id="Path_352">
				<path class="st4" d="M-77.2-26.8c0,0,6.6,4.6,6.4,9.7s-8.2,5.7-17.5-3.1L-77.2-26.8z"/>
				<path class="st32" d="M-75.3-13.1c-3.1,0-7.8-1.8-13.2-6.9l-0.2-0.2l11.6-6.9L-77-27c0.3,0.2,6.7,4.7,6.5,9.9
					c-0.1,1.7-1,2.9-2.5,3.5C-73.6-13.2-74.4-13.1-75.3-13.1z M-87.9-20.1c6.7,6.2,12.1,7.2,14.7,6.2c1.3-0.5,2.1-1.6,2.2-3.1
					c0.2-4.5-5.2-8.7-6.1-9.4L-87.9-20.1z"/>
			</g>
		</g>
		<g id="Path_353">
			<path class="st33" d="M203.2,85.7l-5.6,3.7l1.7-1.8l2.9-3L203.2,85.7z"/>
		</g>
	</g>
	<g id="Path_354">
		<path class="st38" d="M686.5,370L686.5,370l-158.3-90.8l0,0l-14.9-8.5l-18-10.3v309.1l71.1,40.8l97.6,56l48.4,27.8V384.8
			L686.5,370z"/>
	</g>
	<g id="Path_355">
		<path class="st8" d="M526.3,446.6v37.2l154.8,88.9v-37.2L526.3,446.6z"/>
	</g>
	<g id="Path_356">
		<path class="st8" d="M526.3,500.7v37.2l154.8,88.9v-37.2L526.3,500.7z"/>
	</g>
	<g id="Group_933" transform="translate(44.039 331.996)">
		<g id="Group_932">
			<g id="Group_926">
				<g id="Path_357">
					<path class="st32" d="M497.1,203l2.7,3.7c0.2-0.2,0.3-0.3,0.5-0.5c0.9-1.1,1.7-2.2,2.5-3.4v0.1c0.2,0.4,0.4,0.8,0.6,1.2
						c0.7,2.1,1.5,4.1,2.5,6.1l2.6-0.7c-1.7-3.6-3-5.9-3.7-7.1c1.3,0.4,2.6,0.8,3.9,1.1c0.6,0.2,1.2,0.3,1.7,0.5l-1.1-4.4h-0.4
						c-1.4-0.2-2.7-0.4-3.7-0.5H504c0.2-2,0.2-3.6,0.2-4.9c0.1-0.4,0.1-0.8,0.1-1.2l-3.1-2c0,2,0.1,3.9,0.4,5.9c0,0.3,0,0.7,0.1,1
						c-1.4-1.5-2.9-3-4.6-4.6c-0.2-0.4-0.4-0.7-0.7-1l-1.1,3.1c1.7,1.8,3.7,3.3,5.7,4.7C499.6,200.9,498.2,201.8,497.1,203z"/>
				</g>
			</g>
			<g id="Group_927" transform="translate(21.16 11.949)">
				<g id="Path_358">
					<path class="st32" d="M496,196.1c1.6,1.5,3.3,2.8,5.1,4.1c-0.1,0-0.2,0.1-0.2,0.1c-1.4,0.7-2.6,1.6-3.7,2.6l2.7,3.9
						c1.1-1.2,2.1-2.6,3-4c0.2,0.3,0.4,0.7,0.5,1.1c0.7,2.2,1.6,4.3,2.6,6.3h0.2l2.4-0.7c-1.1-2.5-2.3-4.8-3.7-7.1
						c2.1,0.7,4,1.2,5.7,1.6l-1.1-4.2c-1.5-0.3-3.1-0.5-4.6-0.5H504c0.2-2.8,0.4-4.8,0.4-6v-0.2l-3.1-2c0,2.3,0.2,4.6,0.5,6.8v0.1
						c-0.7-0.9-1.5-1.8-2.4-2.5l-2.4-2.6c-0.2-0.2-0.4-0.5-0.6-0.6l-1.1,3.1C495.6,195.7,495.8,196,496,196.1z"/>
				</g>
			</g>
			<g id="Group_928" transform="translate(41.2 23.649)">
				<g id="Path_359">
					<path class="st32" d="M500.9,200.1l-0.1,0.1c-1.3,0.7-2.5,1.6-3.6,2.6l2.6,3.7c0.1,0,0.1,0,0.1-0.1c0,0,0,0,0,0
						c1.2-1,2.2-2.3,3-3.6c0.1,0.3,0.2,0.6,0.4,0.9c1,2.7,1.9,4.9,2.6,6.5l2.7-0.6c-1.8-3.6-3.1-6.1-3.7-7.2
						c1.8,0.7,3.6,1.3,5.5,1.7l-1-4.2c-1.5-0.3-3.1-0.6-4.6-0.7h-0.6c0.2-2.6,0.4-4.5,0.4-5.7V193l-3.4-1.9c0,2.3,0.3,4.5,0.6,6.7
						c-1.7-2-3.5-3.8-5.5-5.6l-1,3.2c0.6,0.6,1.2,1.1,1.9,1.6C498.4,198.2,499.6,199.2,500.9,200.1z"/>
				</g>
			</g>
			<g id="Group_929" transform="translate(63.108 36.097)">
				<g id="Path_360">
					<path class="st32" d="M501.1,200.2c-1.5,0.7-2.8,1.7-4,2.9l2.7,3.7c1.1-1.2,2.1-2.5,3-3.9c0.8,2.5,1.8,5,3,7.3l2.7-0.6
						c-1.7-3.5-3-5.9-3.9-7.2c2.1,0.7,4,1.4,5.7,1.9l-1.1-4.4c-1.7-0.4-3.5-0.5-5.2-0.5c0.2-3,0.4-5.1,0.4-6.2l-3.2-2.1
						c0,2.3,0.3,4.7,0.6,7c-1.7-1.8-3.4-3.7-5.4-5.6l-1.1,3C497,197.3,499,198.9,501.1,200.2z"/>
				</g>
			</g>
			<g id="Group_930" transform="translate(83.147 47.798)">
				<g id="Path_361">
					<path class="st32" d="M497.1,202.8l2.7,3.9c1.2-1.2,2.2-2.5,3.1-3.9c1.1,3.2,2,5.6,2.9,7.5l2.7-0.7c-1.8-3.6-3.1-5.9-3.7-7.1
						c1.8,0.7,3.6,1.3,5.5,1.7l-1-4.4c-1.7-0.3-3.4-0.4-5.1-0.5c0.2-2.9,0.4-5,0.4-6.3l-3.4-1.9c0,2.3,0.2,4.5,0.6,6.7
						c-1.7-1.9-3.5-3.8-5.5-5.5l-1,3.1c1.7,1.7,3.6,3.3,5.6,4.7C499.5,200.9,498.2,201.8,497.1,202.8z"/>
				</g>
			</g>
			<g id="Group_931" transform="translate(103.062 59.372)">
				<g id="Path_362">
					<path class="st32" d="M497.1,203l2.9,3.9c1.2-1.2,2.2-2.6,3.1-4c1.1,3.2,2,5.6,2.9,7.5l2.7-0.7c-1.7-3.5-2.9-5.9-3.6-7.1
						c2,0.7,3.8,1.2,5.5,1.7l-1.1-4.4c-1.7-0.4-3.5-0.5-5.2-0.5c0.3-3,0.5-5.1,0.5-6.3l-3.2-1.9c0,1.7,0.1,4,0.4,6.8
						c-1.6-1.8-3.4-3.7-5.4-5.6l-1.1,3.1c1.8,1.7,3.8,3.3,5.8,4.7C499.7,200.9,498.3,201.8,497.1,203z"/>
				</g>
			</g>
		</g>
	</g>
	<g id="Path_363">
		<path class="st27" d="M680.6,338.3l-155.5-58v115.3c-0.5,3.7,1.5,7.4,6.1,10l105.2,60.9c9.1,5.3,25,4.6,35.5-1.5
			c5.6-3.2,8.5-7.3,8.7-11.2l0.1,0L680.6,338.3z"/>
	</g>
	<g id="Path_364">
		<path class="st30" d="M636.3,350.7l-105.2-60.9c-9.1-5.3-8-14.4,2.6-20.5s26.4-6.7,35.5-1.5l105.2,60.9c9.1,5.3,8,14.4-2.6,20.5
			S645.4,356,636.3,350.7z"/>
	</g>
	<g id="Path_365">
		<path class="st18" d="M613.2,197.1c-29.4-16.9-66,4.3-66,38.2v47.9c0,4.6,6.5,8.4,14.5,8.4s14.5-3.8,14.5-8.4c0-0.1,0-0.1,0-0.2
			h0.2v-41.5c0-10.3,8.4-18.7,18.7-18.7c3.3,0,6.5,0.9,9.3,2.5c14.4,8.3,23.4,23.7,23.4,40.4v63.7h0.2c0.2,4.6,6.6,8.2,14.4,8.2
			c7.9,0,14.4-3.7,14.5-8.3v-57C656.6,241.2,640,212.6,613.2,197.1z"/>
	</g>
	<g id="Path_366">
		<path class="st32" d="M603.9,371.2c0-9-6.4-20-14.3-24.6s-14.3-0.9-14.3,8.1c0,6.1,2.9,13.1,7.2,18.4v28.6l14.1,8.1v-28.6
			C601,380.9,603.9,377.2,603.9,371.2z"/>
	</g>
	<g id="Path_367">
		<path class="st30" d="M585,400.6V372c-4.3-5.3-7.2-12.3-7.2-18.4c0-4.2,1.4-7.3,3.7-8.9c-3.7,0.8-6.2,4.3-6.2,9.9
			c0,6.1,2.9,13.1,7.2,18.4v28.6l14.1,8.1v-2.5L585,400.6z"/>
	</g>
	<g id="Path_368">
		<path class="st4" d="M612.3,219.1c-0.9-0.5-1.8-1-2.7-1.4c14,9.4,22.4,25.2,22.4,42v74.8c1.7,1,3.7,1.7,5.6,2.1V263
			C637.6,244.9,628,228.2,612.3,219.1z"/>
	</g>
	<g id="Path_369">
		<path class="st4" d="M597.2,201.2c7.5,0,14.9,1.9,21.5,5.4c-2.6-1.9-5.2-3.7-8-5.3c-5.9-3.5-12.6-5.3-19.4-5.3
			c-18.8,0-39.1,15-39.1,39.1v0.1C557.9,214,578.2,201.2,597.2,201.2z"/>
	</g>
	<g id="Path_370" class="st26">
		<path class="st27" d="M328.1,209.7c-10.7,14.7-29.7,13.8-45.5,3c-17.2-11.7-28.6-28.4-16.8-45.6c11.7-17.2,35.2-21.6,52.4-9.8
			c0,0,0,0,0,0c13.2,9.1,20.4,27.3,15,42.6C332,203.4,330.3,206.7,328.1,209.7z"/>
	</g>
	<g id="Path_371" class="st26">
		<path class="st27" d="M1052.3,373.3c-1.4,0.7-2.8,1.4-4.1,2.1c-13.2,7.2-22.5,21.9-23.7,36.9c-1.4,18.7,18.3,66.1,42.9,61.2
			c44.4-8.8,29.5-62.4,23.7-93.1c-0.9-4.9-2.1-9.4-6.8-11.8c-4.7-2.4-10.3-2.5-15.5-1.4C1063.2,368.6,1057.6,370.6,1052.3,373.3z"/>
	</g>
	<g id="Group_938" transform="translate(16.669 140.25)">
		<g id="Path_372">
			<path class="st30" d="M980.5,509.4l18,6c32.6-18.5,61.6-41.8,77.7-48.7c-3.9-0.6-48.9-5.8-77.9-5.3l-6.4,12.2l0.5-12
				c-3.1,0.2-5.8,0.4-8.3,0.7c-34.7,4.9-78.4,20.3-90.4,57.2c-5,15.5,12.4,19.3,23.9,20.4c23.5,2.2,49.2-7.4,73.5-20.3L980.5,509.4z
				"/>
		</g>
		<g>
			<defs>
				<path id="SVGID_5_" d="M980.5,509.4l18,6c32.6-18.5,61.6-41.8,77.7-48.7c-3.9-0.6-48.9-5.8-77.9-5.3l-6.4,12.2l0.5-12
					c-3.1,0.2-5.8,0.4-8.3,0.7c-34.7,4.9-78.4,20.3-90.4,57.2c-5,15.5,12.4,19.3,23.9,20.4c23.5,2.2,49.2-7.4,73.5-20.3L980.5,509.4
					z"/>
			</defs>
			<clipPath id="SVGID_2_">
				<use xlink:href="#SVGID_5_"  style="overflow:visible;"/>
			</clipPath>
			<g id="Group_937" class="st19">
				<g id="Group_936" transform="translate(-7.929 -14.303)">
					<g id="Path_373">
						<path class="st40" d="M1069.5,502.4c-1.2-0.3-29.3-7.2-36.9-10.8l0.4-0.9c7.6,3.6,36.5,10.7,36.8,10.8L1069.5,502.4z"/>
					</g>
					<g id="Group_935">
						<g id="Path_374">
							<path class="st40" d="M893,552.3l-0.6-0.8c25.2-18.3,55.5-33.9,89.8-46.6c29.5-10.9,60.7-16.7,90.8-22.4
								c4.5-0.8,9.1-1.7,13.6-2.6l0.2,1c-4.5,0.9-9.1,1.7-13.6,2.6c-30.1,5.6-61.2,11.5-90.6,22.3
								C948.3,518.5,918.2,534.1,893,552.3z"/>
						</g>
						<g id="Path_375">
							<path class="st40" d="M1008.1,497.5l-0.9-0.5c6.5-12.9,23.9-35.8,24.1-36l0.8,0.6C1032,461.9,1014.6,484.7,1008.1,497.5z"/>
						</g>
						<g id="Path_376">
							<path class="st40" d="M974.2,508.9l-1-0.3c4.9-15.5,11.3-30.6,19-44.9l0.9,0.5C985.4,478.4,979,493.4,974.2,508.9z"/>
						</g>
						<g id="Path_377">
							<path class="st40" d="M1043.4,529.9c-13.3-2.1-45.7-18.9-56.6-25.7l0.5-0.8c10.8,6.7,43,23.5,56.2,25.5L1043.4,529.9z"/>
						</g>
						<g id="Path_378">
							<path class="st40" d="M1000.3,548.3c-17.5-2.6-33.5-11.2-57-26.1l0.5-0.8c23.3,14.8,39.3,23.4,56.6,26L1000.3,548.3z"/>
						</g>
						<g id="Path_379">
							<path class="st40" d="M936.1,525.9l-1-0.3c0.7-2.6,1.5-5.3,2.3-8.1c4.4-15.9,9.8-35.8,20.2-48.9l0.8,0.6
								c-10.3,13-15.7,32.7-20,48.5C937.6,520.6,936.8,523.4,936.1,525.9z"/>
						</g>
					</g>
				</g>
			</g>
		</g>
	</g>
	<g id="Path_381">
		<path class="st41" d="M928.8,669.8l-0.8-0.7c44.6-50.6,69.4-117.5,67.8-183.3l1,0C998.5,551.9,973.6,618.9,928.8,669.8z"/>
	</g>
	<g id="Group_951" transform="translate(5.425)">
		<g id="Group_950">
			<g id="Group_939" transform="translate(55.068)">
				<g id="Path_382">
					<path class="st42" d="M935.7,503.9c5.2-10.9,6.3-23.4,3.1-35.1c-0.8-2.8-2.1-5.9-4.8-7.1c-0.7-0.4-1.6-0.4-2.4-0.2
						c-1.2,0.4-1.9,1.8-2.3,3c-2,6.6-0.5,13.7,1.6,20.3S933.9,496.6,935.7,503.9"/>
				</g>
			</g>
			<g id="Group_940" transform="translate(38.177 28.708)">
				<g id="Path_383">
					<path class="st42" d="M949.9,499.4c0.4-12.1-3.5-24-11.1-33.4c-1.8-2.3-4.2-4.6-7.2-4.6c-0.8,0-1.6,0.2-2.3,0.7
						c-1,0.9-1,2.4-0.9,3.6c0.8,6.9,5,12.8,9.5,18S945.4,493.4,949.9,499.4"/>
				</g>
			</g>
			<g id="Group_941" transform="translate(36.443 57.801)">
				<g id="Path_384">
					<path class="st42" d="M945.6,501.4c1.9-12-0.5-24.2-6.9-34.5c-1.6-2.5-3.6-5.1-6.6-5.4c-0.8-0.1-1.6,0-2.3,0.4
						c-1.1,0.7-1.3,2.2-1.3,3.5c-0.1,6.9,3.4,13.3,7.3,19S941.8,494.9,945.6,501.4"/>
				</g>
			</g>
			<g id="Group_942" transform="translate(26.551 87.125)">
				<g id="Path_385">
					<path class="st42" d="M945.6,501.4c1.9-12-0.5-24.2-6.9-34.5c-1.6-2.5-3.6-5.1-6.6-5.4c-0.8-0.1-1.6,0-2.3,0.4
						c-1.1,0.7-1.3,2.2-1.3,3.5c-0.1,6.9,3.4,13.3,7.3,19S941.8,494.9,945.6,501.4"/>
				</g>
			</g>
			<g id="Group_943" transform="translate(12.193 122.738)">
				<g id="Path_386">
					<path class="st42" d="M941.9,502.7c3.1-11.7,2-24.1-3.3-35.1c-1.3-2.6-3.1-5.4-6-6.1c-0.8-0.2-1.6-0.2-2.4,0.2
						c-1.1,0.6-1.5,2.1-1.7,3.4c-0.8,6.8,2,13.6,5.3,19.7S938.8,495.8,941.9,502.7"/>
				</g>
			</g>
			<g id="Group_944" transform="translate(0 147.936)">
				<g id="Path_387">
					<path class="st42" d="M938.4,502.9c3.5-10.6,3.1-23-0.9-34.3c-1-2.8-2.4-5.7-4.9-6.9c-0.6-0.3-1.4-0.4-2.1-0.2
						c-1,0.4-1.5,1.7-1.7,2.9c-1.1,6.5,1,13.4,3.5,19.8S936,495.8,938.4,502.9"/>
				</g>
			</g>
			<g id="Group_945" transform="translate(57.718 45.363)">
				<g id="Path_388">
					<path class="st42" d="M928.5,493.7c12.2-3.4,22.8-11,30-21.4c1.8-2.5,3.4-5.6,2.7-8.6c-0.2-0.8-0.6-1.5-1.3-2
						c-1.1-0.7-2.6-0.3-3.8,0.3c-6.5,2.9-11.3,8.9-15.3,15.1S933.2,487.4,928.5,493.7"/>
				</g>
			</g>
			<g id="Group_946" transform="translate(52.268 77.272)">
				<g id="Path_389">
					<path class="st42" d="M928.5,485.7c12.7-0.4,24.8-5.2,34.3-13.6c2.3-2.1,4.7-4.7,4.7-7.7c0-0.8-0.2-1.6-0.8-2.3
						c-0.9-0.9-2.4-0.9-3.8-0.7c-7,1.2-13.1,6-18.4,11S934.6,480.7,928.5,485.7"/>
				</g>
			</g>
			<g id="Group_947" transform="translate(41.475 114.694)">
				<g id="Path_390">
					<path class="st42" d="M928.5,478.2c12.5,2.1,25.3-0.2,36.3-6.5c2.7-1.5,5.5-3.6,6.1-6.6c0.2-0.8,0.1-1.7-0.3-2.4
						c-0.7-1.1-2.2-1.4-3.6-1.4c-7.1-0.2-14.1,3.2-20.2,7.1S935.5,474.5,928.5,478.2"/>
				</g>
			</g>
			<g id="Group_948" transform="translate(24.068 143.196)">
				<g id="Path_391">
					<path class="st42" d="M928.5,486.5c12.6-0.7,24.6-5.8,34-14.4c2.3-2.1,4.6-4.8,4.5-7.8c0-0.8-0.3-1.6-0.8-2.3
						c-0.9-0.9-2.5-0.8-3.8-0.6c-7,1.4-13,6.3-18.2,11.4S934.5,481.3,928.5,486.5"/>
				</g>
			</g>
			<g id="Group_949" transform="translate(7.425 184.599)">
				<g id="Path_392">
					<path class="st42" d="M928.5,469.3c11.6,5.1,24.6,5.9,36.8,2.5c3-0.8,6.2-2.2,7.5-4.9c0.4-0.7,0.5-1.6,0.3-2.4
						c-0.4-1.2-1.8-1.9-3.1-2.2c-6.9-1.9-14.4-0.3-21.4,2S936.2,467.3,928.5,469.3"/>
				</g>
			</g>
		</g>
	</g>
	<g id="Group_955" transform="translate(0 78.606)">
		<g>
			<defs>
				<path id="SVGID_7_" d="M944.9,585.4c-6.2,6.2-16.1,16.4-26,14.3c-3.1-0.7-5.9-2.5-8.4-4.6c-6.4-5.2-11.7-11.7-15.6-19
					c-1.3-2.1-2.1-4.6-2.2-7.1c0-2.5,1.4-5.1,3.8-5.9s4.7-0.2,5.2-3.4c0.8-5.8-3.1-12-4.7-17.4c-1.2-3.9-2.7-11.9,1.7-14.5
					c3-1.8,7.2,1.6,10-1c0.9-1,1.3-2.4,1-3.7c-0.8-8-6.2-19.1-0.8-26.4c1.1-1.6,3-2.6,4.9-2.6c2,0.2,3.7,1.8,5.7,2
					c2.4,0.3,4.7-1.4,5.9-3.4c1-2.2,1.7-4.5,1.8-6.9c0.9-5.9,2-12,5.3-17c5.2-8.1,17.7-12,21.3-0.2c1.4,4.6-0.9,9.5-3.3,13.7
					c-2.3,3.8-9.5,15.3-0.9,16.2c1.6,0.2,3.4,0,4.9,0.5c3.2,1,4.9,4.8,4.5,8.1s-2.4,6.2-4.7,8.7s-4.9,4.6-6.9,7.2
					c-1.5,1.9-2.6,4.9-1,6.7c1.7,1.9,4.9,0.9,7.3,1.8c2.7,1,3.9,4.4,3.3,7.3s-2.3,5.3-4.1,7.6c-1.7,2.3-3.5,4.6-5.2,6.9
					c-1.9,2.5-3.8,5.6-2.5,8.4c0.8,1.7,2.6,2.6,3.9,4c2.6,2.7,3,6.9,1.8,10.4S947.5,582.8,944.9,585.4z"/>
			</defs>
			<clipPath id="SVGID_4_">
				<use xlink:href="#SVGID_7_"  style="overflow:visible;"/>
			</clipPath>
			<g id="Group_954" class="st24">
				<g id="Path_393">
					<path class="st27" d="M944.9,585.4c-6.2,6.2-16.1,16.4-26,14.3c-3.1-0.7-5.9-2.5-8.4-4.6c-6.4-5.2-11.7-11.7-15.6-19
						c-1.3-2.1-2.1-4.6-2.2-7.1c0-2.5,1.4-5.1,3.8-5.9s4.7-0.2,5.2-3.4c0.8-5.8-3.1-12-4.7-17.4c-1.2-3.9-2.7-11.9,1.7-14.5
						c3-1.8,7.2,1.6,10-1c0.9-1,1.3-2.4,1-3.7c-0.8-8-6.2-19.1-0.8-26.4c1.1-1.6,3-2.6,4.9-2.6c2,0.2,3.7,1.8,5.7,2
						c2.4,0.3,4.7-1.4,5.9-3.4c1-2.2,1.7-4.5,1.8-6.9c0.9-5.9,2-12,5.3-17c5.2-8.1,17.7-12,21.3-0.2c1.4,4.6-0.9,9.5-3.3,13.7
						c-2.3,3.8-9.5,15.3-0.9,16.2c1.6,0.2,3.4,0,4.9,0.5c3.2,1,4.9,4.8,4.5,8.1s-2.4,6.2-4.7,8.7s-4.9,4.6-6.9,7.2
						c-1.5,1.9-2.6,4.9-1,6.7c1.7,1.9,4.9,0.9,7.3,1.8c2.7,1,3.9,4.4,3.3,7.3s-2.3,5.3-4.1,7.6c-1.7,2.3-3.5,4.6-5.2,6.9
						c-1.9,2.5-3.8,5.6-2.5,8.4c0.8,1.7,2.6,2.6,3.9,4c2.6,2.7,3,6.9,1.8,10.4S947.5,582.8,944.9,585.4z"/>
				</g>
				<g id="Group_953" transform="translate(-4.897 -10.532)">
					<g id="Path_394">
						<path class="st4" d="M924.7,627.8l-1,0c0.5-14.6,1.3-29.3,2.4-43.8c0.7-9.4,2.2-18.6,3.6-27.5c0.6-3.7,1.2-7.5,1.7-11.2l0-0.1
							c0.8-5.3,1.6-10.8,2.5-16.1c4.2-23.2,12-45.8,19.6-67.7l0.9,0.3c-7.5,21.8-15.4,44.4-19.6,67.6c-1,5.3-1.8,10.8-2.5,16.1
							l0,0.1c-0.6,3.8-1.2,7.6-1.7,11.2c-1.4,8.9-2.9,18.1-3.6,27.5C925.9,598.5,925.1,613.2,924.7,627.8z"/>
					</g>
					<g id="Path_395">
						<path class="st4" d="M927.9,571.9l-0.3-0.3c-10.5-11.1-27-35.8-30.9-46.4l0.9-0.3c3.8,10.4,19.9,34.6,30.4,45.8
							c4.1-2.7,42.1-28.1,48.1-44.6l0.9,0.3c-6.5,17.7-47.1,44.2-48.8,45.4L927.9,571.9z"/>
					</g>
					<g id="Path_396">
						<path class="st4" d="M932.7,539.6l-0.3-0.5c-0.2-0.3-17.9-32.9-21.3-49.3l1-0.2c3.2,15.2,18.6,44.3,20.9,48.5
							c4-3.2,32.1-26.2,38.6-36l0.8,0.6c-7.1,10.6-37.9,35.6-39.2,36.6L932.7,539.6z"/>
					</g>
					<g id="Path_397">
						<path class="st4" d="M925.6,597.6l-0.2-0.1c-15.3-6.5-25.1-18.1-33.1-28.5l0.8-0.6c7.9,10.2,17.6,21.7,32.6,28.1
							c2.4-0.8,28.3-9.3,41.4-22.6l0.7,0.7c-13.9,14-41.7,22.8-42,22.9L925.6,597.6z"/>
					</g>
				</g>
			</g>
		</g>
	</g>
</g>
</svg>
