<svg xmlns="http://www.w3.org/2000/svg" xmlns:xlink="http://www.w3.org/1999/xlink" width="60" height="60" viewBox="0 0 60 60">
  <defs>
    <clipPath id="clip-path">
      <rect id="Rectangle_419" data-name="Rectangle 419" width="60" height="60" transform="translate(255 4383)" fill="#fff" stroke="#707070" stroke-width="1"/>
    </clipPath>
  </defs>
  <g id="Mask_Group_83" data-name="Mask Group 83" transform="translate(-255 -4383)" clip-path="url(#clip-path)">
    <g id="Group_1365" data-name="Group 1365" transform="translate(-137.491 4046.152)">
      <g id="Group_1333" data-name="Group 1333" transform="translate(403.27 350.971)">
        <rect id="Rectangle_445" data-name="Rectangle 445" width="4.189" height="3.998" transform="translate(0 0)" fill="#8fc232"/>
      </g>
      <g id="Group_1334" data-name="Group 1334" transform="translate(409.458 350.971)">
        <rect id="Rectangle_446" data-name="Rectangle 446" width="4.189" height="3.998" transform="translate(0 0)" fill="#8fc232"/>
      </g>
      <g id="Group_1335" data-name="Group 1335" transform="translate(400.353 350.114)">
        <path id="Path_942" data-name="Path 942" d="M428.676,394.262H412.3V379.221h.762V393.5h14.851V379.221h.762Z" transform="translate(-412.303 -379.221)" fill="#2e484f"/>
      </g>
      <g id="Group_1336" data-name="Group 1336" transform="translate(404.637 357.349)">
        <path id="Path_943" data-name="Path 943" d="M436.256,414.3H428.45v-7.806h7.806Zm-7.044-.762h6.283v-6.283h-6.283Z" transform="translate(-428.45 -406.494)" fill="#2e484f"/>
      </g>
      <g id="Group_1339" data-name="Group 1339" transform="translate(402.969 350.59)">
        <g id="Group_1337" data-name="Group 1337" transform="translate(0 0)">
          <path id="Path_944" data-name="Path 944" d="M427.118,385.68h-4.954v-4.665h4.954Zm-4.192-.762h3.431v-3.141h-3.431Z" transform="translate(-422.164 -381.015)" fill="#2e484f"/>
        </g>
        <g id="Group_1338" data-name="Group 1338" transform="translate(6.187 0)">
          <path id="Path_945" data-name="Path 945" d="M450.442,385.68h-4.954v-4.665h4.954Zm-4.192-.762h3.431v-3.141H446.25Z" transform="translate(-445.488 -381.015)" fill="#2e484f"/>
        </g>
      </g>
      <g id="Group_1340" data-name="Group 1340" transform="translate(396.039 339.605)">
        <path id="Path_946" data-name="Path 946" d="M418.826,352.649l-10.286-8.47-10.285,8.47-2.216-2.69,12.121-9.983.308-.37.072.059.074-.06.307.372,12.12,9.982Zm-21.715-2.586,1.248,1.514,10.182-8.385,10.182,8.385,1.247-1.514-11.429-9.413Z" transform="translate(-396.039 -339.605)" fill="#2e484f"/>
      </g>
      <g id="Group_1341" data-name="Group 1341" transform="translate(431.173 350.971)">
        <rect id="Rectangle_447" data-name="Rectangle 447" width="4.189" height="3.998" transform="translate(0 0)" fill="#8fc232"/>
      </g>
      <g id="Group_1342" data-name="Group 1342" transform="translate(437.361 350.971)">
        <rect id="Rectangle_448" data-name="Rectangle 448" width="4.189" height="3.998" transform="translate(0 0)" fill="#8fc232"/>
      </g>
      <g id="Group_1343" data-name="Group 1343" transform="translate(428.257 350.114)">
        <path id="Path_947" data-name="Path 947" d="M533.861,394.262H517.487V379.221h.762V393.5H533.1V379.221h.762Z" transform="translate(-517.487 -379.221)" fill="#2e484f"/>
      </g>
      <g id="Group_1344" data-name="Group 1344" transform="translate(432.54 357.349)">
        <path id="Path_948" data-name="Path 948" d="M541.44,414.3h-7.806v-7.806h7.806Zm-7.044-.762h6.283v-6.283H534.4Z" transform="translate(-533.634 -406.494)" fill="#2e484f"/>
      </g>
      <g id="Group_1347" data-name="Group 1347" transform="translate(430.873 350.59)">
        <g id="Group_1345" data-name="Group 1345" transform="translate(0 0)">
          <path id="Path_949" data-name="Path 949" d="M532.3,385.68h-4.954v-4.665H532.3Zm-4.192-.762h3.431v-3.141h-3.431Z" transform="translate(-527.349 -381.015)" fill="#2e484f"/>
        </g>
        <g id="Group_1346" data-name="Group 1346" transform="translate(6.187 0)">
          <path id="Path_950" data-name="Path 950" d="M555.626,385.68h-4.954v-4.665h4.954Zm-4.192-.762h3.431v-3.141h-3.431Z" transform="translate(-550.672 -381.015)" fill="#2e484f"/>
        </g>
      </g>
      <g id="Group_1348" data-name="Group 1348" transform="translate(423.942 339.605)">
        <path id="Path_951" data-name="Path 951" d="M524.011,352.649l-10.285-8.47-10.285,8.47-2.216-2.69,12.121-9.983.308-.37.072.059.074-.06.306.372,12.12,9.982ZM502.3,350.063l1.247,1.514,10.182-8.385,10.182,8.385,1.247-1.514-11.429-9.413Z" transform="translate(-501.224 -339.605)" fill="#2e484f"/>
      </g>
      <g id="Group_1349" data-name="Group 1349" transform="translate(403.27 379.908)">
        <rect id="Rectangle_449" data-name="Rectangle 449" width="4.189" height="3.998" transform="translate(0 0)" fill="#8fc232"/>
      </g>
      <g id="Group_1350" data-name="Group 1350" transform="translate(409.458 379.908)">
        <rect id="Rectangle_450" data-name="Rectangle 450" width="4.189" height="3.998" transform="translate(0 0)" fill="#8fc232"/>
      </g>
      <g id="Group_1351" data-name="Group 1351" transform="translate(400.353 379.051)">
        <path id="Path_952" data-name="Path 952" d="M428.676,503.342H412.3V488.3h.762v14.279h14.851V488.3h.762Z" transform="translate(-412.303 -488.301)" fill="#2e484f"/>
      </g>
      <g id="Group_1352" data-name="Group 1352" transform="translate(404.637 386.286)">
        <path id="Path_953" data-name="Path 953" d="M436.256,523.38H428.45v-7.806h7.806Zm-7.044-.762h6.283v-6.283h-6.283Z" transform="translate(-428.45 -515.574)" fill="#2e484f"/>
      </g>
      <g id="Group_1355" data-name="Group 1355" transform="translate(402.969 379.527)">
        <g id="Group_1353" data-name="Group 1353" transform="translate(0 0)">
          <path id="Path_954" data-name="Path 954" d="M427.118,494.76h-4.954V490.1h4.954ZM422.926,494h3.431v-3.141h-3.431Z" transform="translate(-422.164 -490.095)" fill="#2e484f"/>
        </g>
        <g id="Group_1354" data-name="Group 1354" transform="translate(6.187 0)">
          <path id="Path_955" data-name="Path 955" d="M450.442,494.76h-4.954V490.1h4.954ZM446.25,494h3.431v-3.141H446.25Z" transform="translate(-445.488 -490.095)" fill="#2e484f"/>
        </g>
      </g>
      <g id="Group_1356" data-name="Group 1356" transform="translate(396.039 368.542)">
        <path id="Path_956" data-name="Path 956" d="M418.826,461.73l-10.286-8.471-10.285,8.47-2.216-2.69,12.121-9.983.308-.37.072.059.074-.061.307.373,12.12,9.982Zm-21.715-2.586,1.248,1.514,10.182-8.385,10.182,8.385,1.247-1.514-11.429-9.412Z" transform="translate(-396.039 -448.685)" fill="#2e484f"/>
      </g>
      <g id="Group_1357" data-name="Group 1357" transform="translate(431.173 379.908)">
        <rect id="Rectangle_451" data-name="Rectangle 451" width="4.189" height="3.998" transform="translate(0 0)" fill="#8fc232"/>
      </g>
      <g id="Group_1358" data-name="Group 1358" transform="translate(437.361 379.908)">
        <rect id="Rectangle_452" data-name="Rectangle 452" width="4.189" height="3.998" transform="translate(0 0)" fill="#8fc232"/>
      </g>
      <g id="Group_1359" data-name="Group 1359" transform="translate(428.257 379.051)">
        <path id="Path_957" data-name="Path 957" d="M533.861,503.342H517.487V488.3h.762v14.279H533.1V488.3h.762Z" transform="translate(-517.487 -488.301)" fill="#2e484f"/>
      </g>
      <g id="Group_1360" data-name="Group 1360" transform="translate(432.54 386.286)">
        <path id="Path_958" data-name="Path 958" d="M541.44,523.38h-7.806v-7.806h7.806Zm-7.044-.762h6.283v-6.283H534.4Z" transform="translate(-533.634 -515.574)" fill="#2e484f"/>
      </g>
      <g id="Group_1363" data-name="Group 1363" transform="translate(430.873 379.527)">
        <g id="Group_1361" data-name="Group 1361" transform="translate(0 0)">
          <path id="Path_959" data-name="Path 959" d="M532.3,494.76h-4.954V490.1H532.3ZM528.111,494h3.431v-3.141h-3.431Z" transform="translate(-527.349 -490.095)" fill="#2e484f"/>
        </g>
        <g id="Group_1362" data-name="Group 1362" transform="translate(6.187 0)">
          <path id="Path_960" data-name="Path 960" d="M555.626,494.76h-4.954V490.1h4.954ZM551.434,494h3.431v-3.141h-3.431Z" transform="translate(-550.672 -490.095)" fill="#2e484f"/>
        </g>
      </g>
      <g id="Group_1364" data-name="Group 1364" transform="translate(423.942 368.542)">
        <path id="Path_961" data-name="Path 961" d="M524.011,461.73l-10.285-8.471-10.285,8.47-2.216-2.69,12.121-9.983.308-.37.072.059.074-.061.306.373,12.12,9.982ZM502.3,459.143l1.247,1.514,10.182-8.385,10.182,8.385,1.247-1.514-11.429-9.412Z" transform="translate(-501.224 -448.685)" fill="#2e484f"/>
      </g>
    </g>
  </g>
</svg>
