<svg xmlns="http://www.w3.org/2000/svg" xmlns:xlink="http://www.w3.org/1999/xlink" width="60" height="60" viewBox="0 0 60 60">
  <defs>
    <clipPath id="clip-path">
      <rect id="Rectangle_392" data-name="Rectangle 392" width="60" height="60" transform="translate(255 4383)" fill="#fff" stroke="#707070" stroke-width="1"/>
    </clipPath>
  </defs>
  <g id="Mask_Group_79" data-name="Mask Group 79" transform="translate(-255 -4383)" clip-path="url(#clip-path)">
    <g id="Group_1198" data-name="Group 1198" transform="translate(469.45 4276.04)">
      <path id="Path_849" data-name="Path 849" d="M-185.027,120.4c.212-.317.374-.555.531-.8a12.177,12.177,0,0,1,13.707-5.07,12.18,12.18,0,0,1,8.718,11.73,26.654,26.654,0,0,1-3.455,12.476,57,57,0,0,1-11.989,15.084c-2.146,1.986-4.456,3.8-6.688,5.688a1.041,1.041,0,0,1-1.5.109c-7.329-5.646-13.848-12.034-18.433-20.176a26.835,26.835,0,0,1-3.841-13.182,12.174,12.174,0,0,1,8.717-11.73,12.177,12.177,0,0,1,13.707,5.07C-185.4,119.845-185.239,120.082-185.027,120.4Zm-.08,37.907a2.653,2.653,0,0,0,.33-.172A72.263,72.263,0,0,0-169.5,142.479a31.254,31.254,0,0,0,5.925-14.515,10.993,10.993,0,0,0-7.765-12.1,10.808,10.808,0,0,0-12.892,6.283c-.147.33-.536.552-.812.824a4.062,4.062,0,0,1-.834-.929,10.82,10.82,0,0,0-12.087-6.368,10.781,10.781,0,0,0-8.582,10.706,24.493,24.493,0,0,0,3.124,11.376C-199.006,146.086-192.413,152.487-185.107,158.307Z" transform="translate(0)" fill="#2e484f"/>
      <path id="Path_850" data-name="Path 850" d="M-118.481,192.757a10.785,10.785,0,0,1-10.785,10.763,10.785,10.785,0,0,1-10.74-10.809,10.783,10.783,0,0,1,10.741-10.717A10.781,10.781,0,0,1-118.481,192.757Zm-20.087-.045a9.343,9.343,0,0,0,9.234,9.37,9.342,9.342,0,0,0,9.414-9.28,9.341,9.341,0,0,0-9.234-9.369A9.342,9.342,0,0,0-138.568,192.711Z" transform="translate(-55.784 -55.778)" fill="#2e484f"/>
      <path id="Path_851" data-name="Path 851" d="M-131.985,199.292a9.342,9.342,0,0,1,9.414-9.279,9.341,9.341,0,0,1,9.234,9.369,9.342,9.342,0,0,1-9.414,9.28A9.343,9.343,0,0,1-131.985,199.292Zm11.478,2.2c.7,0,1.265-.016,1.829,0,.7.026,1.062-.262,1.045-1q-.028-1.163,0-2.327c.018-.735-.343-1.019-1.046-.994-.586.021-1.174,0-1.828,0,0-.693-.012-1.284,0-1.874.017-.662-.261-1.008-.95-1q-1.208.018-2.416,0c-.689-.01-.966.337-.948,1,.016.612,0,1.225,0,1.873-.7,0-1.265.017-1.829,0-.7-.026-1.063.259-1.045.995q.029,1.163,0,2.327c-.018.735.341,1.021,1.045,1,.587-.021,1.174,0,1.829,0,0,.692.012,1.283,0,1.873-.017.661.26,1.009.949,1q1.208-.017,2.416,0c.689.01.966-.338.949-1C-120.519,202.774-120.507,202.184-120.507,201.491Z" transform="translate(-62.366 -62.358)" fill="#8fc232"/>
      <path id="Path_852" data-name="Path 852" d="M-100.853,221.158c0,.692-.012,1.283,0,1.873.017.661-.261,1.009-.949,1q-1.208-.017-2.416,0c-.689.01-.966-.338-.949-1,.016-.59,0-1.181,0-1.873-.655,0-1.243-.017-1.829,0-.7.025-1.063-.261-1.045-1q.029-1.163,0-2.327c-.018-.735.342-1.021,1.045-.995.564.021,1.129,0,1.829,0,0-.649.013-1.261,0-1.873-.017-.662.259-1.009.948-1q1.208.017,2.416,0c.689-.01.967.336.95,1-.015.59,0,1.181,0,1.874.654,0,1.242.017,1.828,0,.7-.025,1.064.258,1.046.994q-.028,1.163,0,2.327c.018.734-.341,1.022-1.045,1C-99.587,221.141-100.153,221.158-100.853,221.158Zm-5.7-2.87v1.432c.594,0,1.154.025,1.711-.006.8-.044,1.17.28,1.126,1.1-.031.582-.006,1.167-.006,1.731h1.432c0-.664,0-1.285,0-1.9-.006-.635.307-.928.934-.919s1.238,0,1.881,0v-1.432c-.616,0-1.178-.021-1.739.005-.752.035-1.114-.278-1.08-1.051.025-.587.005-1.175.005-1.76h-1.432c0,.656-.01,1.25,0,1.843.014.679-.311.982-.982.966C-105.293,218.276-105.886,218.288-106.553,218.288Z" transform="translate(-82.021 -82.025)" fill="#2e484f"/>
    </g>
  </g>
</svg>
