<svg xmlns="http://www.w3.org/2000/svg" xmlns:xlink="http://www.w3.org/1999/xlink" width="60" height="60" viewBox="0 0 60 60">
  <defs>
    <clipPath id="clip-path">
      <rect id="Rectangle_409" data-name="Rectangle 409" width="60" height="60" transform="translate(255 4383)" fill="#fff" stroke="#707070" stroke-width="1"/>
    </clipPath>
  </defs>
  <g id="Mask_Group_82" data-name="Mask Group 82" transform="translate(-255 -4383)" clip-path="url(#clip-path)">
    <g id="Group_1293" data-name="Group 1293" transform="translate(-1297.936 4314.123)">
      <path id="Path_902" data-name="Path 902" d="M1565.413,156.43v11.546h4.358v-1.081q0-13.431,0-26.863c0-.269-.007-4.063,0-4.7.15-.291.68,1.2.915.953.2.247.289-1.455.412-1.172.1.227,0,4.652,0,4.922q0,13.431,0,26.863V168h5.138c0-.948,0-1.894,0-2.84,0-.481.045-.96.66-.964s.678.458.672.95c-.01.924,0,1.847,0,2.838h4.628v-9.026h-4.628c0,.923-.006,5.362,0,6.3,0,.515-.014.161-.672.143-.6-.017-.66.33-.659-.143,0-1.078.016-5.634-.005-6.711-.014-.666.229-.993.939-.99q5.748.022,11.5,0c.761,0,.981.348.976,1.047-.018,2.785-.007,5.57-.007,8.355v1.029h5.137v-1.013q0-8.894,0-17.789c0-.24-.1-4.883,0-5.075.162-.324.1,1.287.322,1,.215.3.85-1.043,1-.711.092.2,0,4.587,0,4.827v18.75h4.344V156.415l-.205-.216a16.477,16.477,0,0,0-1.673,1.3c-.373.369-.731.783-1.162.32a1.171,1.171,0,0,1,.1-1.138,25.4,25.4,0,0,1,2.231-1.879c-.584-.185-1.242-.44-1.923-.592-.479-.107-.939-.2-.864-.793.084-.66.606-.667,1.1-.537.8.208,1.593.457,2.638.761a15.991,15.991,0,0,1-1.08-1.585,3.783,3.783,0,0,1-.208-1.081c.372.033.91-.077,1.085.126a26.836,26.836,0,0,1,1.665,2.352c.608-.165,1.394-.394,2.189-.589.481-.118.956-.048,1.037.536s-.365.7-.85.807c-.681.15-1.341.4-1.94.586.823.69,1.589,1.282,2.29,1.941.35.329.5.868-.025,1.128a1.165,1.165,0,0,1-1.015-.331,3.288,3.288,0,0,0-1.97-1.206v11.724c.509,0,.978-.016,1.446,0a2.6,2.6,0,0,1,2.62,2.63,2.574,2.574,0,0,1-2.686,2.553q-20.3.014-40.6,0a2.595,2.595,0,1,1-.027-5.186c.441-.014.884,0,1.376,0V156.076a18.925,18.925,0,0,0-1.86,1.4c-.368.356-.664.786-1.179.378s-.223-.917.124-1.239c.668-.62,1.409-1.16,2.217-1.811a20.155,20.155,0,0,1-2.006-.634c-.32-.134-.765-.481-.773-.743-.017-.578.5-.68.984-.564.779.186,1.549.414,2.261.607.456-.715.911-1.509,1.45-2.241.285-.386.755-.727,1.219-.255s.086.828-.256,1.214a13.053,13.053,0,0,0-.97,1.437,26.62,26.62,0,0,1,2.728-.737,1.106,1.106,0,0,1,.948.48c.195.549-.261.727-.761.836-.686.149-1.351.389-2.031.592.824.658,1.574,1.2,2.252,1.821.352.322.648.826.124,1.238s-.817-.016-1.181-.38a15.934,15.934,0,0,0-1.624-1.272Zm17.523,15.462h19.478a9.7,9.7,0,0,0,.986-.024,1.213,1.213,0,0,0-.045-2.424c-.239-.013-.479-.009-.718-.009h-39.4c-1.354,0-1.907.347-1.921,1.2-.014.879.574,1.259,1.967,1.26Zm5.323-12.935h-4.553v9.034h4.553Z" transform="translate(0 -51.362)" fill="#2e484f"/>
      <path id="Path_903" data-name="Path 903" d="M1607.376,81.114c-1.376-.256-1.628-1.187-1.6-2.407.054-2.631.223-2.837,2.889-2.837H1633.1c1.715,0,2.181.467,2.184,2.178,0,.24-.021.481,0,.718a1.878,1.878,0,0,1-1.585,2.349c0,1.647,0,3.259,0,4.871q0,3.954,0,7.908c0,.495-.09.968-.676.959s-.658-.482-.657-.977q.011-5.8,0-11.592V81.138H1608.7c0,.941,0,1.916,0,2.89a2.488,2.488,0,0,1-.024.89,3.8,3.8,0,0,1-.633.82c-.222-.266-.62-.523-.635-.8C1607.337,83.686,1607.376,82.427,1607.376,81.114Zm-.24-1.482h26.756c.019-.352.05-.672.052-.992.011-1.416.009-1.416-1.381-1.416h-24.14a3.017,3.017,0,0,0-.8.024c-.185.052-.451.251-.463.4C1607.107,78.3,1607.136,78.946,1607.136,79.633Z" transform="translate(-37.601 0)" fill="#2e484f"/>
      <path id="Path_904" data-name="Path 904" d="M1679.042,204.635c0,2.475-.026,2.5-2.49,2.5s-2.512-.033-2.512-2.479.058-2.519,2.49-2.519C1678.985,202.138,1679.042,202.195,1679.042,204.635Zm-1.432-1.062h-2.121v2.143h2.121Z" transform="translate(-93.606 -103.584)" fill="#2e484f"/>
      <path id="Path_905" data-name="Path 905" d="M1676.574,120.791c2.468,0,2.468,0,2.468,2.51,0,2.413-.053,2.467-2.444,2.467-2.542,0-2.558-.015-2.558-2.532C1674.041,120.791,1674.041,120.791,1676.574,120.791Zm1.025,3.563v-2.181h-2.12v2.181Z" transform="translate(-93.606 -36.851)" fill="#2e484f"/>
      <path id="Path_906" data-name="Path 906" d="M1636.848,204.643c0-2.484.021-2.5,2.48-2.5s2.491.04,2.491,2.51-.013,2.488-2.5,2.488S1636.848,207.136,1636.848,204.643Zm3.555,1.068v-2.128h-2.174v2.128Z" transform="translate(-63.094 -103.584)" fill="#2e484f"/>
      <path id="Path_907" data-name="Path 907" d="M1716.371,204.7c0,2.44,0,2.44-2.437,2.44-2.535,0-2.535,0-2.535-2.541,0-2.4.058-2.457,2.455-2.457C1716.363,202.138,1716.371,202.146,1716.371,204.7Zm-1.384,1.033v-2.157h-2.169v2.157Z" transform="translate(-124.253 -103.584)" fill="#2e484f"/>
      <path id="Path_908" data-name="Path 908" d="M1639.385,120.791c2.422,0,2.435.013,2.435,2.449,0,2.52-.008,2.528-2.554,2.528-2.372,0-2.418-.045-2.418-2.381V123.3C1636.848,120.791,1636.848,120.791,1639.385,120.791Zm1.034,1.392c-2.618-.094-2.26-.432-2.195,2.057,0,.024.035.047.07.091h2.125Z" transform="translate(-63.094 -36.851)" fill="#2e484f"/>
      <path id="Path_909" data-name="Path 909" d="M1716.371,123.314c0,2.426-.027,2.454-2.434,2.454-2.53,0-2.538-.009-2.538-2.544,0-2.417.016-2.433,2.451-2.433C1716.371,120.791,1716.371,120.791,1716.371,123.314Zm-3.552-1.112v2.142h2.139C1715.122,121.774,1715.363,122.056,1712.818,122.2Z" transform="translate(-124.253 -36.851)" fill="#2e484f"/>
      <path id="Path_910" data-name="Path 910" d="M1676.472,166.482c-2.425,0-2.431-.006-2.431-2.456,0-2.5,0-2.5,2.48-2.5,2.521,0,2.521,0,2.521,2.552C1679.042,166.482,1679.042,166.482,1676.472,166.482Zm-1.006-1.391h2.133v-2.154h-2.133Z" transform="translate(-93.606 -70.265)" fill="#2e484f"/>
      <path id="Path_911" data-name="Path 911" d="M1639.266,166.482c-2.418,0-2.418,0-2.418-2.377,0-2.582,0-2.582,2.58-2.582,2.362,0,2.391.03,2.391,2.429C1641.82,166.482,1641.82,166.482,1639.266,166.482Zm-1.008-3.576v2.2h2.129v-2.2Z" transform="translate(-63.094 -70.265)" fill="#2e484f"/>
      <path id="Path_912" data-name="Path 912" d="M1716.371,164.02c0,2.462,0,2.462-2.423,2.462-2.549,0-2.549,0-2.548-2.535,0-2.394.029-2.424,2.4-2.424h.09C1716.371,161.523,1716.371,161.523,1716.371,164.02Zm-1.387-1.1h-2.174v2.179h2.174Z" transform="translate(-124.253 -70.265)" fill="#2e484f"/>
      <g id="Group_1293-2" data-name="Group 1293" transform="translate(1575.077 85.262)">
        <path id="Path_913" data-name="Path 913" d="M1684.224,210.123v2.143H1682.1v-2.143Z" transform="translate(-1675.296 -195.397)" fill="#8fc232"/>
        <path id="Path_914" data-name="Path 914" d="M1684.168,130.664h-2.12v-2.181h2.12Z" transform="translate(-1675.251 -128.423)" fill="#8fc232"/>
        <path id="Path_915" data-name="Path 915" d="M1646.712,212.313h-2.174v-2.128h2.174Z" transform="translate(-1644.48 -195.448)" fill="#8fc232"/>
        <path id="Path_916" data-name="Path 916" d="M1721.469,212.274H1719.3v-2.157h2.169Z" transform="translate(-1705.811 -195.392)" fill="#8fc232"/>
        <path id="Path_917" data-name="Path 917" d="M1646.462,128.224v2.149h-2.125c-.035-.045-.069-.068-.07-.091C1644.2,127.793,1643.844,128.131,1646.462,128.224Z" transform="translate(-1644.214 -128.154)" fill="#8fc232"/>
        <path id="Path_918" data-name="Path 918" d="M1719.3,128.238c2.545-.147,2.3-.428,2.139,2.142H1719.3Z" transform="translate(-1705.812 -128.149)" fill="#8fc232"/>
        <path id="Path_919" data-name="Path 919" d="M1681.977,171.553V169.4h2.133v2.154Z" transform="translate(-1675.193 -161.989)" fill="#8fc232"/>
        <path id="Path_920" data-name="Path 920" d="M1644.7,169.223h2.129v2.2H1644.7Z" transform="translate(-1644.612 -161.844)" fill="#8fc232"/>
        <path id="Path_921" data-name="Path 921" d="M1721.424,169.276v2.179h-2.174v-2.179Z" transform="translate(-1705.77 -161.888)" fill="#8fc232"/>
      </g>
    </g>
  </g>
</svg>
