<svg xmlns="http://www.w3.org/2000/svg" xmlns:xlink="http://www.w3.org/1999/xlink" width="60" height="60" viewBox="0 0 60 60">
  <defs>
    <clipPath id="clip-path">
      <rect id="Rectangle_394" data-name="Rectangle 394" width="60" height="60" transform="translate(255 4383)" fill="#fff" stroke="#707070" stroke-width="1"/>
    </clipPath>
  </defs>
  <g id="Mask_Group_81" data-name="Mask Group 81" transform="translate(-255 -4383)" clip-path="url(#clip-path)">
    <g id="Group_1221" data-name="Group 1221" transform="translate(-642.769 3636.169)">
      <g id="Group_1200" data-name="Group 1200" transform="translate(905.207 762.339)">
        <rect id="Rectangle_395" data-name="Rectangle 395" width="9" height="4" transform="translate(-0.438 -0.008)" fill="#8fc232"/>
      </g>
      <g id="Group_1201" data-name="Group 1201" transform="translate(905.207 768.76)">
        <rect id="Rectangle_396" data-name="Rectangle 396" width="9" height="4" transform="translate(-0.438 -0.43)" fill="#8fc232"/>
      </g>
      <g id="Group_1202" data-name="Group 1202" transform="translate(905.207 775.008)">
        <rect id="Rectangle_397" data-name="Rectangle 397" width="9" height="3" transform="translate(-0.438 0.322)" fill="#8fc232"/>
      </g>
      <g id="Group_1203" data-name="Group 1203" transform="translate(923.083 762.339)">
        <rect id="Rectangle_398" data-name="Rectangle 398" width="9" height="4" transform="translate(-0.314 -0.008)" fill="#8fc232"/>
      </g>
      <g id="Group_1204" data-name="Group 1204" transform="translate(923.083 768.76)">
        <rect id="Rectangle_399" data-name="Rectangle 399" width="9" height="4" transform="translate(-0.314 -0.43)" fill="#8fc232"/>
      </g>
      <g id="Group_1205" data-name="Group 1205" transform="translate(923.083 775.008)">
        <rect id="Rectangle_400" data-name="Rectangle 400" width="9" height="3" transform="translate(-0.314 0.322)" fill="#8fc232"/>
      </g>
      <g id="Group_1206" data-name="Group 1206" transform="translate(941.132 762.339)">
        <rect id="Rectangle_401" data-name="Rectangle 401" width="9" height="4" transform="translate(-0.363 -0.008)" fill="#8fc232"/>
      </g>
      <g id="Group_1207" data-name="Group 1207" transform="translate(941.132 768.76)">
        <rect id="Rectangle_402" data-name="Rectangle 402" width="9" height="4" transform="translate(-0.363 -0.43)" fill="#8fc232"/>
      </g>
      <g id="Group_1208" data-name="Group 1208" transform="translate(941.132 775.008)">
        <rect id="Rectangle_403" data-name="Rectangle 403" width="9" height="3" transform="translate(-0.363 0.322)" fill="#8fc232"/>
      </g>
      <g id="Group_1209" data-name="Group 1209" transform="translate(904.512 761.818)">
        <path id="Path_857" data-name="Path 857" d="M936.066,784.859H926V780h10.066Zm-8.678-1.388h7.289v-2.083h-7.289Z" transform="translate(-926 -780)" fill="#2e484f"/>
      </g>
      <g id="Group_1210" data-name="Group 1210" transform="translate(904.512 768.24)">
        <path id="Path_858" data-name="Path 858" d="M936.066,821.859H926V817h10.066Zm-8.678-1.388h7.289v-2.083h-7.289Z" transform="translate(-926 -817)" fill="#2e484f"/>
      </g>
      <g id="Group_1211" data-name="Group 1211" transform="translate(904.512 774.488)">
        <path id="Path_859" data-name="Path 859" d="M936.066,857.859H926V853h10.066Zm-8.678-1.388h7.289v-2.083h-7.289Z" transform="translate(-926 -853)" fill="#2e484f"/>
      </g>
      <g id="Group_1212" data-name="Group 1212" transform="translate(900 758)">
        <path id="Path_860" data-name="Path 860" d="M919.438,795.661H900V758h19.438Zm-18.05-1.388H918.05V759.388H901.388Z" transform="translate(-900 -758)" fill="#2e484f"/>
      </g>
      <g id="Group_1213" data-name="Group 1213" transform="translate(922.562 761.818)">
        <path id="Path_861" data-name="Path 861" d="M1040.066,784.859H1030V780h10.066Zm-8.678-1.388h7.289v-2.083h-7.289Z" transform="translate(-1030 -780)" fill="#2e484f"/>
      </g>
      <g id="Group_1214" data-name="Group 1214" transform="translate(922.562 768.24)">
        <path id="Path_862" data-name="Path 862" d="M1040.066,821.859H1030V817h10.066Zm-8.678-1.388h7.289v-2.083h-7.289Z" transform="translate(-1030 -817)" fill="#2e484f"/>
      </g>
      <g id="Group_1215" data-name="Group 1215" transform="translate(922.562 774.488)">
        <path id="Path_863" data-name="Path 863" d="M1040.066,857.859H1030V853h10.066Zm-8.678-1.388h7.289v-2.083h-7.289Z" transform="translate(-1030 -853)" fill="#2e484f"/>
      </g>
      <g id="Group_1216" data-name="Group 1216" transform="translate(918.05 758)">
        <path id="Path_864" data-name="Path 864" d="M1023.438,795.661H1004V758h19.438Zm-18.05-1.388h16.661V759.388h-16.661Z" transform="translate(-1004 -758)" fill="#2e484f"/>
      </g>
      <g id="Group_1217" data-name="Group 1217" transform="translate(940.612 761.818)">
        <path id="Path_865" data-name="Path 865" d="M1144.066,784.859H1134V780h10.066Zm-8.678-1.388h7.289v-2.083h-7.289Z" transform="translate(-1134 -780)" fill="#2e484f"/>
      </g>
      <g id="Group_1218" data-name="Group 1218" transform="translate(940.612 768.24)">
        <path id="Path_866" data-name="Path 866" d="M1144.066,821.859H1134V817h10.066Zm-8.678-1.388h7.289v-2.083h-7.289Z" transform="translate(-1134 -817)" fill="#2e484f"/>
      </g>
      <g id="Group_1219" data-name="Group 1219" transform="translate(940.612 774.488)">
        <path id="Path_867" data-name="Path 867" d="M1144.066,857.859H1134V853h10.066Zm-8.678-1.388h7.289v-2.083h-7.289Z" transform="translate(-1134 -853)" fill="#2e484f"/>
      </g>
      <g id="Group_1220" data-name="Group 1220" transform="translate(936.099 758)">
        <path id="Path_868" data-name="Path 868" d="M1127.438,795.661H1108V758h19.438Zm-18.05-1.388h16.661V759.388h-16.661Z" transform="translate(-1108 -758)" fill="#2e484f"/>
      </g>
      <g id="Group_1223" data-name="Group 1223" transform="translate(904.859 783.676)">
        <g id="Group_1183" data-name="Group 1183" transform="translate(0)">
          <path id="Path_833" data-name="Path 833" d="M569.845,571.923h-9.72V560h9.72Zm-8.683-1.037h7.646v-9.849h-7.646Z" transform="translate(-560.125 -560)" fill="#2e484f"/>
        </g>
      </g>
      <g id="Group_1366" data-name="Group 1366" transform="translate(922.909 783.676)">
        <g id="Group_1183-2" data-name="Group 1183" transform="translate(0)">
          <path id="Path_833-2" data-name="Path 833" d="M569.845,571.923h-9.72V560h9.72Zm-8.683-1.037h7.646v-9.849h-7.646Z" transform="translate(-560.125 -560)" fill="#2e484f"/>
        </g>
      </g>
      <g id="Group_1367" data-name="Group 1367" transform="translate(940.909 783.676)">
        <g id="Group_1183-3" data-name="Group 1183" transform="translate(0)">
          <path id="Path_833-3" data-name="Path 833" d="M569.845,571.923h-9.72V560h9.72Zm-8.683-1.037h7.646v-9.849h-7.646Z" transform="translate(-560.125 -560)" fill="#2e484f"/>
        </g>
      </g>
    </g>
  </g>
</svg>
