<svg xmlns="http://www.w3.org/2000/svg" xmlns:xlink="http://www.w3.org/1999/xlink" width="60" height="60" viewBox="0 0 60 60">
  <defs>
    <clipPath id="clip-path">
      <rect id="Rectangle_381" data-name="Rectangle 381" width="60" height="60" transform="translate(255 4383)" fill="#fff" stroke="#707070" stroke-width="1"/>
    </clipPath>
  </defs>
  <g id="Mask_Group_78" data-name="Mask Group 78" transform="translate(-255 -4383)" clip-path="url(#clip-path)">
    <g id="Group_1323" data-name="Group 1323" transform="translate(-146 4028.843)">
      <g id="Group_1294" data-name="Group 1294" transform="translate(422.214 370.539)">
        <rect id="Rectangle_438" data-name="Rectangle 438" width="7.029" height="7.029" transform="translate(0 0)" fill="#8fc232"/>
      </g>
      <g id="Group_1295" data-name="Group 1295" transform="translate(432.757 370.539)">
        <rect id="Rectangle_439" data-name="Rectangle 439" width="7.029" height="7.029" transform="translate(0 0)" fill="#8fc232"/>
      </g>
      <g id="Group_1296" data-name="Group 1296" transform="translate(422.214 381.082)">
        <rect id="Rectangle_440" data-name="Rectangle 440" width="7.029" height="6.15" transform="translate(0 0)" fill="#8fc232"/>
      </g>
      <g id="Group_1297" data-name="Group 1297" transform="translate(432.757 381.082)">
        <rect id="Rectangle_441" data-name="Rectangle 441" width="7.029" height="6.15" transform="translate(0 0)" fill="#8fc232"/>
      </g>
      <g id="Group_1299" data-name="Group 1299" transform="translate(416.809 365.198)">
        <g id="Group_1298" data-name="Group 1298" transform="translate(0 0)">
          <path id="Path_922" data-name="Path 922" d="M533.137,423.964H504.812V383h28.325Zm-27.107-1.218h25.888V384.218H506.03Z" transform="translate(-504.812 -383)" fill="#2e484f"/>
        </g>
      </g>
      <g id="Group_1308" data-name="Group 1308" transform="translate(421.349 369.614)">
        <g id="Group_1301" data-name="Group 1301" transform="translate(0)">
          <g id="Group_1300" data-name="Group 1300">
            <path id="Path_923" data-name="Path 923" d="M543,420.376h-8.376V412H543Zm-7.157-1.218h5.939v-5.939h-5.939Z" transform="translate(-534.625 -412)" fill="#2e484f"/>
          </g>
        </g>
        <g id="Group_1303" data-name="Group 1303" transform="translate(10.812)">
          <g id="Group_1302" data-name="Group 1302">
            <path id="Path_924" data-name="Path 924" d="M614,420.376h-8.376V412H614Zm-7.157-1.218h5.939v-5.939h-5.939Z" transform="translate(-605.625 -412)" fill="#2e484f"/>
          </g>
        </g>
        <g id="Group_1305" data-name="Group 1305" transform="translate(0 10.051)">
          <g id="Group_1304" data-name="Group 1304">
            <path id="Path_925" data-name="Path 925" d="M543,486.376h-8.376V478H543Zm-7.157-1.218h5.939v-5.939h-5.939Z" transform="translate(-534.625 -478)" fill="#2e484f"/>
          </g>
        </g>
        <g id="Group_1307" data-name="Group 1307" transform="translate(10.812 10.051)">
          <g id="Group_1306" data-name="Group 1306">
            <path id="Path_926" data-name="Path 926" d="M614,486.376h-8.376V478H614Zm-7.157-1.218h5.939v-5.939h-5.939Z" transform="translate(-605.625 -478)" fill="#2e484f"/>
          </g>
        </g>
      </g>
      <g id="Group_1310" data-name="Group 1310" transform="translate(425.232 392.152)">
        <g id="Group_1309" data-name="Group 1309" transform="translate(0 0)">
          <path id="Path_927" data-name="Path 927" d="M571.546,574.01H560.125V560h11.421Zm-10.2-1.218h8.985V561.218h-8.985Z" transform="translate(-560.125 -560)" fill="#2e484f"/>
        </g>
      </g>
      <g id="Group_1312" data-name="Group 1312" transform="translate(409.623 405.096)">
        <g id="Group_1311" data-name="Group 1311" transform="translate(0)">
          <rect id="Rectangle_442" data-name="Rectangle 442" width="42.64" height="1.218" fill="#2e484f"/>
        </g>
      </g>
      <g id="Group_1314" data-name="Group 1314" transform="translate(422.9 362)">
        <g id="Group_1313" data-name="Group 1313" transform="translate(0 0)">
          <path id="Path_928" data-name="Path 928" d="M560.954,366.264H544.812V362h16.142Zm-14.924-1.218h13.706v-1.827H546.03Z" transform="translate(-544.812 -362)" fill="#2e484f"/>
        </g>
      </g>
      <g id="Group_1315" data-name="Group 1315" transform="translate(404.807 376.619)">
        <path id="Path_929" data-name="Path 929" d="M434.832,462.264H426V458h8.832Zm-7.614-1.218h6.4v-1.827h-6.4Z" transform="translate(-426 -458)" fill="#2e484f"/>
      </g>
      <g id="Group_1316" data-name="Group 1316" transform="translate(404.807 382.254)">
        <path id="Path_930" data-name="Path 930" d="M434.832,499.264H426V495h8.832Zm-7.614-1.218h6.4v-1.827h-6.4Z" transform="translate(-426 -495)" fill="#2e484f"/>
      </g>
      <g id="Group_1317" data-name="Group 1317" transform="translate(404.807 387.736)">
        <path id="Path_931" data-name="Path 931" d="M434.832,535.264H426V531h8.832Zm-7.614-1.218h6.4v-1.827h-6.4Z" transform="translate(-426 -531)" fill="#2e484f"/>
      </g>
      <g id="Group_1318" data-name="Group 1318" transform="translate(447.904 376.619)">
        <path id="Path_932" data-name="Path 932" d="M717.832,462.264H709V458h8.832Zm-7.614-1.218h6.4v-1.827h-6.4Z" transform="translate(-709 -458)" fill="#2e484f"/>
      </g>
      <g id="Group_1319" data-name="Group 1319" transform="translate(447.904 382.254)">
        <path id="Path_933" data-name="Path 933" d="M717.832,499.264H709V495h8.832Zm-7.614-1.218h6.4v-1.827h-6.4Z" transform="translate(-709 -495)" fill="#2e484f"/>
      </g>
      <g id="Group_1320" data-name="Group 1320" transform="translate(447.904 387.736)">
        <path id="Path_934" data-name="Path 934" d="M717.832,535.264H709V531h8.832Zm-7.614-1.218h6.4v-1.827h-6.4Z" transform="translate(-709 -531)" fill="#2e484f"/>
      </g>
      <g id="Group_1321" data-name="Group 1321" transform="translate(401 373.269)">
        <path id="Path_935" data-name="Path 935" d="M418.056,469.046H401V436h17.056Zm-15.838-1.218h14.619V437.218H402.218Z" transform="translate(-401 -436)" fill="#2e484f"/>
      </g>
      <g id="Group_1322" data-name="Group 1322" transform="translate(443.944 373.269)">
        <path id="Path_936" data-name="Path 936" d="M700.056,469.046H683V436h17.056Zm-15.838-1.218h14.619V437.218H684.218Z" transform="translate(-683 -436)" fill="#2e484f"/>
      </g>
    </g>
  </g>
</svg>
