<svg xmlns="http://www.w3.org/2000/svg" xmlns:xlink="http://www.w3.org/1999/xlink" width="60" height="60" viewBox="0 0 60 60">
  <defs>
    <clipPath id="clip-path">
      <rect id="Rectangle_437" data-name="Rectangle 437" width="60" height="60" transform="translate(255 4383)" fill="#fff" stroke="#707070" stroke-width="1"/>
    </clipPath>
  </defs>
  <g id="Mask_Group_86" data-name="Mask Group 86" transform="translate(-255 -4383)" clip-path="url(#clip-path)">
    <g id="Group_1370" data-name="Group 1370" transform="translate(-692 4342.993)">
      <g id="Group_1369" data-name="Group 1369" transform="translate(947 88.812)">
        <g id="Group_1368" data-name="Group 1368" transform="translate(0)">
          <rect id="Rectangle_453" data-name="Rectangle 453" width="60" height="1.714" fill="#2e484f"/>
        </g>
      </g>
      <path id="Path_962" data-name="Path 962" d="M1010.434,67.722q-2.417-5.3-4.9-10.579c-.146-.313-.519-.722-.8-.733-1.732-.069-3.467-.034-5.177-.034v1.7c1.224,0,2.4.06,3.564-.019a1.266,1.266,0,0,1,1.412.936c1.149,2.571,2.353,5.119,3.529,7.678.109.238.176.5.289.829-1.009,0-1.907-.073-2.788.017a5.158,5.158,0,0,1-4.2-1.352c-1.089-.971-2.786-1.545-3.366-2.715-.6-1.211-.191-2.929-.206-4.425-.013-1.449,0-2.9,0-4.329,1.629-.118,1.71-.2,1.714-1.665,0-.714-.036-1.431.009-2.143.062-1.007-.349-1.419-1.376-1.4-2.5.041-5,.006-7.5.015-3.529.011-3.124-.39-3.137,3.148-.009,1.761,0,1.761,1.624,2.141v2.293c-1.727-1.275-3.356-2.428-4.924-3.656a1.365,1.365,0,0,0-1.984.017,37.128,37.128,0,0,1-3.193,2.344,3.249,3.249,0,0,1-1.641.544q-7.5.061-15,.006a1.525,1.525,0,0,0-1.639,1.037c-.568,1.346-1.206,2.664-1.817,3.99-.971,2.1-1.956,4.2-2.914,6.315-.463,1.018-.186,1.442.93,1.539.165.013.33.032.557.054V88.812h1.719V69.363a1.392,1.392,0,0,1,.294-.122c.214-.015.433.009.643-.024a4.782,4.782,0,0,1,5.019,1.967c.281.386,1,.454,1.755.771V88.812h1.719c0-5.889.013-11.777-.017-17.664a1.836,1.836,0,0,1,.812-1.693c4.3-3.184,8.578-6.411,12.864-9.621.306-.229.63-.435.947-.654,4.714,3.531,9.379,7.009,14.008,10.532a1.782,1.782,0,0,1,.5,1.269c.032,5.927.021,11.856.021,17.784a.364.364,0,0,1,0,.047h1.751c-.011-.236-.03-.476-.03-.709V71.954a10.673,10.673,0,0,0,1.809-.8,14.778,14.778,0,0,0,1.382-1.339c.253-.229.553-.549.846-.564,1.2-.064,2.4-.028,3.673-.028V88.812h1.719V69.318C1010.621,69.1,1010.918,68.787,1010.434,67.722ZM989.267,51.275h8.473v1.584h-8.473Zm4.412,6.761a13.286,13.286,0,0,0,2.314.039V62.15c-1.667-1.228-3.24-2.376-4.8-3.549a.774.774,0,0,1-.251-.54c-.021-1.1-.011-2.2-.011-3.354h5.055V56.36a13.342,13.342,0,0,0-2.3.039c-.379.069-.69.529-1.033.812C993,57.5,993.3,57.967,993.679,58.036Zm-29.739,8.9a3.237,3.237,0,0,1-1.646.538c-1.376.075-2.758.024-4.3.024,1.033-2.241,1.993-4.339,2.961-6.433.448-.971.673-2.321,1.438-2.792.81-.5,2.136-.191,3.238-.2,3-.013,6,0,9,0h1.331c-1.1.816-1.948,1.446-2.8,2.074C970.095,62.42,967.039,64.709,963.94,66.94Zm36.364,2.848c-.42-.3-.789-.566-1.151-.836-4.881-3.66-9.78-7.3-14.625-11a1.785,1.785,0,0,0-2.591-.028c-4.926,3.774-9.913,7.472-14.88,11.2-.281.21-.572.4-.958.679-.4-.441-.776-.859-1.236-1.371,6.111-4.517,12.206-9.021,18.358-13.571,6.174,4.564,12.251,9.056,18.424,13.622Z" transform="translate(-6.914 0)" fill="#2e484f"/>
      <path id="Path_963" data-name="Path 963" d="M1065.45,195.689h-1.725c.007-1.671,0-3.341,0-5.012,0-2.629-.842-3.469-3.452-3.437-.24,0-.48,0-.829,0v8.308q0,.071.006.141h-1.71c-.043-1.879-.015-3.761-.015-5.64v-2.775a16.247,16.247,0,0,0-2.149.017,2.544,2.544,0,0,0-2.128,2.676c-.015,1.905-.011,3.814,0,5.721h-1.721c.006-1.909-.011-3.821.006-5.732a4.269,4.269,0,0,1,4.466-4.431q2.407-.022,4.817,0a4.264,4.264,0,0,1,4.425,4.363C1065.463,191.821,1065.443,193.756,1065.45,195.689Z" transform="translate(-82.283 -106.878)" fill="#2e484f"/>
      <path id="Path_964" data-name="Path 964" d="M1044.259,129.609a4.273,4.273,0,0,0-8.537.066c-.056,1.674,0,3.349-.021,5.025-.006.81.366,1.172,1.17,1.159,1.033-.017,2.068,0,3.1,0,1.069,0,2.139-.006,3.208,0a.966.966,0,0,0,1.1-1.116C1044.272,133.031,1044.328,131.317,1044.259,129.609Zm-5.2,4.461h-1.577v-1.594h1.577Zm.017-3.4h-1.511c-.321-1.588.118-2.5,1.511-3.086Zm3.422,3.454h-1.562V132.5h1.562Zm-.03-3.463h-1.539v-3.026C1042.185,128,1042.678,128.938,1042.468,130.657Z" transform="translate(-69.689 -59.779)" fill="#2e484f"/>
      <path id="Path_965" data-name="Path 965" d="M1100.243,129.562a4.273,4.273,0,0,0-8.531.054c-.064,1.71-.011,3.422-.021,5.132a.966.966,0,0,0,1.11,1.11c1.069-.009,2.139,0,3.208,0s2.139,0,3.208,0a.929.929,0,0,0,1.05-1.052C1100.264,133.055,1100.32,131.3,1100.243,129.562Zm-5.179-1.991v3.09h-1.506A2.366,2.366,0,0,1,1095.063,127.571Zm.009,6.489h-1.618v-1.573h1.618Zm3.411.021h-1.6V132.5h1.6Zm.006-3.439H1096.9v-3.064C1098.233,128.145,1098.623,128.893,1098.49,130.642Z" transform="translate(-113.677 -59.779)" fill="#2e484f"/>
      <path id="Path_966" data-name="Path 966" d="M982.305,161.52c-2.769-.021-2.591-.156-2.593,2.612,0,2.687-.135,2.541,2.563,2.541,2.764,0,2.591.15,2.593-2.619C984.872,161.368,985,161.5,982.305,161.52Zm.759,3.358h-1.543v-1.62h1.543Z" transform="translate(-25.701 -88.019)" fill="#2e484f"/>
      <path id="Path_967" data-name="Path 967" d="M1166.315,161.523c-2.769,0-2.6-.161-2.6,2.608,0,2.691-.139,2.55,2.554,2.55,2.764,0,2.619.156,2.6-2.61C1168.891,161.38,1169.007,161.521,1166.315,161.523Zm.748,3.36H1165.5v-1.618h1.562Z" transform="translate(-170.274 -88.027)" fill="#2e484f"/>
      <path id="Path_968" data-name="Path 968" d="M984.865,196.1c.021-2.7.159-2.578-2.526-2.574-2.769,0-2.627-.186-2.625,2.582,0,2.7-.154,2.578,2.529,2.576C985.008,198.674,984.891,198.863,984.865,196.1Zm-1.8.793h-1.575V195.3h1.575Z" transform="translate(-25.702 -113.169)" fill="#2e484f"/>
      <path id="Path_969" data-name="Path 969" d="M1168.861,196c-.009-2.475,0-2.475-2.516-2.475-2.835-.017-2.644-.18-2.636,2.672.009,2.475,0,2.469,2.513,2.477C1169.056,198.684,1168.87,198.849,1168.861,196Zm-1.779.906h-1.577v-1.6h1.577Z" transform="translate(-170.268 -113.166)" fill="#2e484f"/>
      <path id="Path_970" data-name="Path 970" d="M1161.627,97.443c.248,0,.547-.087.734.02a6.953,6.953,0,0,1,.963.787c-.32.3-.594.728-.974.871a2.2,2.2,0,0,1-1.36.006c-.4-.129-.95-.461-1.018-.789-.131-.638.4-.9,1.016-.9C1161.2,97.443,1161.415,97.442,1161.627,97.443Z" transform="translate(-167.32 -37.653)" fill="#2e484f"/>
      <path id="Path_971" data-name="Path 971" d="M1173.609,115.13c-.177,0-.355-.005-.532,0-.635.023-1.2-.14-1.18-.883s.606-.858,1.227-.838a2.967,2.967,0,0,1,1.052.029,5.868,5.868,0,0,1,1.1.855c-.38.278-.746.578-1.147.823C1174,115.2,1173.786,115.13,1173.609,115.13Z" transform="translate(-176.705 -50.196)" fill="#2e484f"/>
      <path id="Path_972" data-name="Path 972" d="M1016.461,74.543l18.425,13.621-1.343,1.309c-.419-.3-.789-.565-1.151-.836-4.881-3.659-9.78-7.3-14.625-11a1.785,1.785,0,0,0-2.59-.027c-4.928,3.774-9.914,7.472-14.881,11.2-.281.211-.573.407-.959.68l-1.235-1.37Z" transform="translate(-40.152 -19.686)" fill="#fff"/>
      <path id="Path_973" data-name="Path 973" d="M1124.815,75.5a13.312,13.312,0,0,0-2.3.038c-.381.069-.691.529-1.033.813.338.288.643.756,1.02.826a13.3,13.3,0,0,0,2.314.039V81.29c-1.667-1.227-3.24-2.377-4.8-3.548a.778.778,0,0,1-.249-.541c-.023-1.1-.011-2.2-.011-3.354h5.054Z" transform="translate(-135.738 -19.14)" fill="#fff"/>
      <path id="Path_974" data-name="Path 974" d="M1111.984,59.414V57.83h8.473v1.584Z" transform="translate(-129.63 -6.555)" fill="#fff"/>
      <path id="Path_975" data-name="Path 975" d="M1045.563,138.037h-1.511c-.321-1.589.118-2.5,1.511-3.086Z" transform="translate(-76.177 -67.15)" fill="#8fc232"/>
      <path id="Path_976" data-name="Path 976" d="M1061.66,138.215h-1.538V135.19C1061.377,135.564,1061.87,136.5,1061.66,138.215Z" transform="translate(-88.882 -67.338)" fill="#8fc232"/>
      <path id="Path_977" data-name="Path 977" d="M1044.026,157.8h1.577v1.6h-1.577Z" transform="translate(-76.235 -85.099)" fill="#8fc232"/>
      <path id="Path_978" data-name="Path 978" d="M1061.713,159.537h-1.561V157.92h1.561Z" transform="translate(-88.905 -85.197)" fill="#8fc232"/>
      <path id="Path_979" data-name="Path 979" d="M1101.554,134.907V138h-1.506A2.365,2.365,0,0,1,1101.554,134.907Z" transform="translate(-120.167 -67.115)" fill="#8fc232"/>
      <path id="Path_980" data-name="Path 980" d="M1116.027,138v-3.065c1.337.569,1.725,1.316,1.592,3.065Z" transform="translate(-132.807 -67.14)" fill="#8fc232"/>
      <path id="Path_981" data-name="Path 981" d="M1099.959,159.42v-1.574h1.618v1.574Z" transform="translate(-120.182 -85.139)" fill="#8fc232"/>
      <path id="Path_982" data-name="Path 982" d="M1115.983,159.5v-1.577h1.6V159.5Z" transform="translate(-132.772 -85.202)" fill="#8fc232"/>
      <path id="Path_983" data-name="Path 983" d="M988.163,169.664h1.543v1.619h-1.543Z" transform="translate(-32.342 -94.424)" fill="#8fc232"/>
      <path id="Path_984" data-name="Path 984" d="M1172.064,169.658h1.561v1.617h-1.561Z" transform="translate(-176.836 -94.42)" fill="#8fc232"/>
      <path id="Path_985" data-name="Path 985" d="M988.034,201.8h1.574V203.4h-1.574Z" transform="translate(-32.241 -119.676)" fill="#8fc232"/>
      <path id="Path_986" data-name="Path 986" d="M1173.692,203.479h-1.577v-1.6h1.577Z" transform="translate(-176.876 -119.739)" fill="#8fc232"/>
      <path id="Path_987" data-name="Path 987" d="M991.209,99.188a14.522,14.522,0,0,1-2.342-.036c-.385-.063-.706-.512-1.056-.786.326-.3.639-.832.98-.851a46.8,46.8,0,0,1,4.9,0c.327.016.631.509.946.782-.326.3-.62.792-.985.852A15.341,15.341,0,0,1,991.209,99.188Z" transform="translate(-32.066 -37.685)" fill="#2e484f"/>
      <path id="Path_988" data-name="Path 988" d="M981.634,115.131c-.142,0-.284,0-.426,0-.647.023-1.305-.049-1.3-.87s.676-.869,1.317-.851a2.9,2.9,0,0,1,1.051.031,4.976,4.976,0,0,1,1.013.839,10.186,10.186,0,0,1-1.029.833C982.11,115.211,981.847,115.13,981.634,115.131Z" transform="translate(-25.858 -50.198)" fill="#2e484f"/>
    </g>
  </g>
</svg>
