<svg xmlns="http://www.w3.org/2000/svg" xmlns:xlink="http://www.w3.org/1999/xlink" width="60" height="60" viewBox="0 0 60 60">
  <defs>
    <clipPath id="clip-path">
      <rect id="Rectangle_479" data-name="Rectangle 479" width="60" height="60" transform="translate(255 4383)" fill="#fff" stroke="#707070" stroke-width="1"/>
    </clipPath>
    <clipPath id="clip-path-2">
      <rect id="Rectangle_478" data-name="Rectangle 478" width="44" height="44" transform="translate(0 -0.036)" fill="#2e484f"/>
    </clipPath>
  </defs>
  <g id="Mask_Group_89" data-name="Mask Group 89" transform="translate(-255 -4383)" clip-path="url(#clip-path)">
    <rect id="Rectangle_473" data-name="Rectangle 473" width="39" height="7" transform="translate(266 4406)" fill="#8fc232"/>
    <rect id="Rectangle_474" data-name="Rectangle 474" width="39" height="7" transform="translate(266 4416)" fill="#8fc232"/>
    <rect id="Rectangle_475" data-name="Rectangle 475" width="6" height="6" rx="3" transform="translate(271 4426)" fill="#8fc232"/>
    <rect id="Rectangle_476" data-name="Rectangle 476" width="6" height="6" rx="3" transform="translate(282 4426)" fill="#8fc232"/>
    <rect id="Rectangle_477" data-name="Rectangle 477" width="6" height="6" rx="3" transform="translate(293 4426)" fill="#8fc232"/>
    <g id="Group_1395" data-name="Group 1395" transform="translate(263.099 4391.037)">
      <g id="Group_1394" data-name="Group 1394" transform="translate(-0.099 0)" clip-path="url(#clip-path-2)">
        <path id="Path_1045" data-name="Path 1045" d="M43.728,39.72H42.369V11.433h1.359V5.422H35.287c0-1.5-.045-5.422-.045-5.422H8.486S8.46,3.873,8.46,5.288v.133H0v6.011H1.37V39.72H0v4.243H43.728Zm-1.4,2.811H1.435V41.167h40.89ZM31.159,37.045A2,2,0,0,1,33.4,35.488a2.109,2.109,0,0,1,1.875,1.966c.032.733.006,1.468.006,2.251H31.131a17.661,17.661,0,0,1,.028-2.661M2.837,22.762H40.9v1.368H2.837ZM40.9,31.2H32.491V25.581H40.9Zm-9.879.012H22.6V25.607H31.02Zm-9.884,0H12.72V25.608h8.417ZM11.26,31.2H2.845V25.591H11.26ZM2.837,15.688h8.414V21.3H2.837Zm9.891.008h8.414v5.611H12.729Zm9.885,0h8.417v5.607H22.614Zm9.868-.007H40.9V21.3H32.482ZM2.833,14.221V11.444H8.462c0,.227-.012.456,0,.685a1,1,0,0,0,.022.153v.565H35.242v-.572a3.7,3.7,0,0,0,.046-.586c0-.071.009-.143.015-.24h5.611v2.772Zm39.49-4.232H35.318V7.2h7.006ZM9.9,1.538H33.842v9.856H9.9ZM1.424,7.2H8.429V9.981H1.424ZM8.49,37.317A2.086,2.086,0,0,1,10.7,35.481a2.113,2.113,0,0,1,1.986,2.042c.021.717,0,1.434,0,2.18H8.476c0-.809-.058-1.6.014-2.386m11.285.06a2.11,2.11,0,0,1,4.2.041c.042.746.008,1.5.008,2.274h-4.22c0-.791-.042-1.556.01-2.315m5.628.27a3.527,3.527,0,0,0-7.053-.158c-.017.721,0,1.443,0,2.2H14.106c0-.708.011-1.425,0-2.141a3.525,3.525,0,0,0-7.048-.091c-.023.734,0,1.47,0,2.235H2.837V32.683H40.9V39.7H36.7c0-.739.013-1.457,0-2.175a3.537,3.537,0,0,0-3.127-3.444,3.466,3.466,0,0,0-3.775,2.574,12.092,12.092,0,0,0-.151,2.193c-.014.275,0,.551,0,.871H25.4c0-.7,0-1.388,0-2.073" transform="translate(0.118 0)" fill="#2e484f"/>
        <path id="Path_1046" data-name="Path 1046" d="M100.867,24.923c-.4-.134-.665.082-.892.391-.46.627-.931,1.245-1.438,1.921-.5-.667-.966-1.273-1.417-1.889-.233-.319-.494-.566-.92-.421s-.494.486-.492.887c.008,1.915,0,3.83,0,5.744,0,.127.016.253.023.364h1.412V27.749c.273.361.482.641.694.918.454.593.934.592,1.389,0l.645-.837.085.043v4.055h1.4c0-2.074,0-4.12,0-6.165a.759.759,0,0,0-.5-.84" transform="translate(-84.31 -21.949)" fill="#2e484f"/>
        <path id="Path_1047" data-name="Path 1047" d="M157.707,24.889a2.079,2.079,0,0,0-2.078,1.948c-.041,1.678-.008,3.357,0,5.036,0,.023.032.045.05.068h1.354V30.58h1.418v1.362h1.391c0-1.739.041-3.446-.015-5.15a2.061,2.061,0,0,0-2.116-1.9m.726,4.226h-1.4c0-.75-.033-1.494.014-2.233a.629.629,0,0,1,.716-.573.677.677,0,0,1,.662.69c.017.689,0,1.378,0,2.116" transform="translate(-137.15 -21.956)" fill="#2e484f"/>
        <path id="Path_1048" data-name="Path 1048" d="M204.942,25.186h-1.394c0,2.11,0,4.184,0,6.258a.709.709,0,0,0,.8.778c.675.008,1.351,0,2.026,0h.671v-1.41h-2.11Z" transform="translate(-179.437 -22.217)" fill="#2e484f"/>
        <path id="Path_1049" data-name="Path 1049" d="M246.87,25.183h-1.395c0,2.11,0,4.184,0,6.258a.71.71,0,0,0,.8.779c.646.008,1.292,0,1.938,0H249V30.8H246.87Z" transform="translate(-216.423 -22.215)" fill="#2e484f"/>
      </g>
    </g>
  </g>
</svg>
