<svg xmlns="http://www.w3.org/2000/svg" viewBox="0 0 40 40" fill="currentColor"><defs><clipPath id="a"><path d="M0 0h40v40H0z" data-name="Rectangle 334" transform="translate(717 768)"/></clipPath></defs><g clip-path="url(#a)" data-name="Virtual tours and Digital Twin" transform="translate(-717 -768)"><g data-name="Group 945"><path d="M736.99 768.001h9.061a2.7 2.7 0 012.958 2.961c.009 3.255.017 6.509-.012 9.764a1.25 1.25 0 00.641 1.2c1.754 1.168 3.484 2.373 5.214 3.578 1.546 1.077 1.535 2.6-.021 3.677-1.753 1.217-3.5 2.441-5.276 3.625a1.124 1.124 0 00-.554 1.083c.02 3.645.012 7.29.01 10.936 0 2.156-1.009 3.176-3.137 3.177h-17.81a2.739 2.739 0 01-3.076-3.081c0-3.671-.012-7.343.011-11.014a1.19 1.19 0 00-.6-1.136c-1.775-1.184-3.523-2.408-5.275-3.627-1.5-1.047-1.5-2.573.011-3.626a382.188 382.188 0 015.34-3.67 1.068 1.068 0 00.526-1.019c-.02-3.151-.011-6.3-.01-9.452 0-2.431.93-3.372 3.332-3.373zm10.658 7.471c0-1.562.012-3.124 0-4.686-.009-.926-.472-1.344-1.382-1.447a3.477 3.477 0 00-3.707 1.463 3.012 3.012 0 01-2.8 1.223 132.85 132.85 0 00-5.467 0 3.12 3.12 0 01-2.871-1.253 3.326 3.326 0 00-3.406-1.45c-1.213.12-1.654.458-1.656 1.66-.005 3.046-.108 6.1.062 9.134a24.723 24.723 0 01-.006 2.69c-.153 3.012-.048 6.037-.068 9.057a1.076 1.076 0 00.533 1.017q4.707 3.211 9.378 6.475a1.145 1.145 0 001.531-.025q4.637-3.243 9.316-6.427a1.136 1.136 0 00.563-1.081c-.023-2.915 0-5.831-.029-8.747a6.34 6.34 0 00-.367-1.258c-.055-.233-.126-.621-.012-.71.509-.4.393-.916.395-1.418-.002-1.405-.005-2.811-.006-4.217zm-21.3 18.7c0 2.711-.014 5.26.007 7.808.007.9.541 1.338 1.55 1.338q9.093.006 18.186 0c1.092 0 1.546-.468 1.55-1.581.008-2 0-4.007 0-6.01v-1.556c-.351.227-.567.358-.775.5l-8.414 5.8a2.17 2.17 0 01-2.928-.01q-4.176-2.876-8.349-5.757c-.22-.155-.458-.298-.822-.531zm21.238 10.373c-1.013.045-2.015.126-3.017.129q-7.536.02-15.072 0c-1.028 0-2.056-.081-3.1-.125-.232 1.61.188 2.107 1.885 2.107h17.414c1.709 0 2.13-.497 1.895-2.111zm1.444-12.995c1.772-1.222 3.414-2.346 5.048-3.483.769-.535.767-.936-.011-1.478q-2.3-1.6-4.615-3.182a3 3 0 00-.422-.2zm-24.091-8.422c-1.8 1.245-3.5 2.4-5.169 3.577-.6.426-.581.848.042 1.292.972.692 1.961 1.36 2.945 2.037l2.181 1.49zm17-13.7h-9.923c.967 1.2 1.036 1.238 2.41 1.238 1.714 0 3.431-.056 5.142.021a2.378 2.378 0 002.38-1.262z" data-name="Path 715"/><path d="M731.009 784.271c0-.884-.052-1.773.026-2.65a1.485 1.485 0 01.552-.991 95.278 95.278 0 014.823-3.015 1.4 1.4 0 011.186 0 94.57 94.57 0 014.823 3.015 1.421 1.421 0 01.545 1c.054 1.818.051 3.64 0 5.459a1.335 1.335 0 01-.518.934c-1.6 1.06-3.232 2.084-4.89 3.056a1.318 1.318 0 01-1.123-.005c-1.657-.972-3.286-2-4.889-3.056a1.378 1.378 0 01-.513-.936c-.066-.936-.022-1.875-.022-2.811zm1.926-2.936c1.316.823 2.519 1.589 3.741 2.322a.727.727 0 00.625.015c1.237-.742 2.454-1.518 3.763-2.338-1.315-.824-2.537-1.6-3.775-2.351a.638.638 0 00-.55-.014c-1.24.75-2.464 1.53-3.803 2.366zm3.408 8.134a12.6 12.6 0 01.016-1.979 3.039 3.039 0 00-2.062-3.745 14.181 14.181 0 01-1.971-1.21c0 1.465-.008 2.735.009 4a.723.723 0 00.209.53c1.21.793 2.438 1.55 3.801 2.404zm1.313 0c1.348-.844 2.538-1.578 3.712-2.337a.7.7 0 00.289-.487c.024-1.314.013-2.628.013-4.107-1.365.856-2.61 1.629-3.843 2.422a.545.545 0 00-.164.4c-.011 1.315-.006 2.629-.006 4.11z" data-name="Path 717"/><path d="M741.315 777.847c-.65-.533-1.271-1.007-1.834-1.542-.084-.08.034-.529.185-.657a.767.767 0 01.7-.092 8.266 8.266 0 011.454 1.013.783.783 0 01.133.692c-.066.199-.34.327-.638.586z" data-name="Path 718"/><path d="M732.843 777.69c-.745-.02-1.121-.677-.758-1.015a6.427 6.427 0 011.725-1.153c.464-.207.995.485.66.856a11.345 11.345 0 01-1.627 1.312z" data-name="Path 719"/><path d="M728.859 780.486c-.292-.243-.565-.364-.639-.561a.763.763 0 01.107-.685 8.172 8.172 0 011.449-1.016.757.757 0 01.691.113c.149.133.26.576.174.658-.546.519-1.151.976-1.782 1.491z" data-name="Path 720"/><path d="M745.886 779.597a.659.659 0 01-.984.633 6.542 6.542 0 01-1.329-.93.893.893 0 01-.152-.8.752.752 0 01.671-.31 14.541 14.541 0 011.656 1.116c.089.061.108.225.138.291z" data-name="Path 721"/><path d="M738.189 774.581c-.158.107-.526.48-.641.414-.551-.318-1.512.546-1.736-.584-.075-.379.716-1.067 1.179-1.074a1.471 1.471 0 011.198 1.244z" data-name="Path 722"/></g></g></svg>