<svg xmlns="http://www.w3.org/2000/svg" viewBox="0 0 16 16" fill="currentColor"><defs><clipPath id="a"><path d="M0 0h16v16H0z" data-name="Rectangle 49" transform="translate(1845 393)"/></clipPath></defs><g clip-path="url(#a)" transform="translate(-1845 -393)"><path d="M1853.004 396.898a4.1 4.1 0 104.1 4.1 4.1 4.1 0 00-4.1-4.1zm0 6.769a2.667 2.667 0 112.671-2.667 2.672 2.672 0 01-2.667 2.667zm5.227-6.937a.957.957 0 11-.956-.955.955.955 0 01.955.955zm2.717.971a4.735 4.735 0 00-1.292-3.352 4.766 4.766 0 00-3.352-1.292c-1.321-.075-5.28-.075-6.6 0a4.759 4.759 0 00-3.355 1.288 4.751 4.751 0 00-1.293 3.353c-.075 1.321-.075 5.28 0 6.6a4.735 4.735 0 001.292 3.352 4.772 4.772 0 003.352 1.292c1.321.075 5.28.075 6.6 0a4.735 4.735 0 003.352-1.292 4.766 4.766 0 001.292-3.352c.078-1.323.078-5.276.003-6.597zm-1.707 8.015a2.7 2.7 0 01-1.521 1.521c-1.053.418-3.552.321-4.716.321s-3.667.093-4.716-.321a2.7 2.7 0 01-1.521-1.521c-.418-1.053-.321-3.552-.321-4.716s-.093-3.667.321-4.716a2.7 2.7 0 011.521-1.521c1.053-.418 3.552-.321 4.716-.321s3.667-.093 4.716.321a2.7 2.7 0 011.521 1.521c.418 1.053.321 3.552.321 4.716s.096 3.667-.321 4.716z" data-name="instagram"/></g></svg>