<svg xmlns="http://www.w3.org/2000/svg" viewBox="0 0 40 40" fill="currentColor"><defs><clipPath id="a"><path d="M0 0h40v40H0z" data-name="Rectangle 235" transform="translate(260 2303)"/></clipPath></defs><g clip-path="url(#a)" data-name="Mask Group 69" transform="translate(-260 -2303)"><g data-name="Group 886"><g data-name="Group 871"><path d="M287.387 2316.63v-.809a7.387 7.387 0 00-14.774 0v.809c-.782 0-1.416.9-1.416 2.008s.634 2.007 1.416 2.007h.07a7.385 7.385 0 0014.636 0h.069c.784 0 1.417-.9 1.417-2.007s-.635-2.008-1.418-2.008z" data-name="Path 639"/><path d="M279.994 2327.521a7.9 7.9 0 01-7.742-6.428 2.384 2.384 0 01-1.553-2.458 2.447 2.447 0 011.416-2.419v-.4a7.879 7.879 0 0115.758 0v.4a2.446 2.446 0 011.418 2.419 2.384 2.384 0 01-1.553 2.457 7.9 7.9 0 01-7.744 6.429zm-7.317-7.375a.492.492 0 01.487.426 6.894 6.894 0 0013.662 0 .489.489 0 01.529-.424h.038c.482 0 .915-.709.915-1.516s-.433-1.516-.926-1.516a.492.492 0 01-.492-.492v-.809a6.9 6.9 0 00-13.791 0v.809a.492.492 0 01-.492.492c-.493 0-.925.708-.925 1.516s.432 1.516.925 1.516h.027z" data-name="Path 640"/></g><g data-name="Group 873"><path d="M296.064 2335.578c-1.045-3.958-4.171-4.389-4.171-4.389l-8.583-2.048v-2.86a7.379 7.379 0 01-6.619 0v2.86l-8.583 2.048s-3.127.431-4.174 4.389l-1.216 6.931h34.564z" data-name="Path 642"/><path d="M297.282 2343.001h-34.564a.492.492 0 01-.484-.577l1.216-6.931c0-.014.005-.027.009-.041 1.078-4.073 4.2-4.689 4.555-4.746l8.186-1.953v-2.472a.492.492 0 01.713-.439 6.888 6.888 0 006.177 0 .492.492 0 01.713.439v2.472l8.186 1.953c.35.057 3.477.673 4.552 4.746 0 .013.006.027.009.041l1.219 6.931a.492.492 0 01-.484.577zm-33.979-.983h33.393l-1.114-6.334c-.947-3.552-3.645-3.991-3.76-4.008l-.045-.009-8.583-2.048a.492.492 0 01-.378-.478v-2.1a7.9 7.9 0 01-5.636 0v2.1a.492.492 0 01-.378.478l-8.583 2.048-.047.009c-.112.017-2.811.455-3.76 4.008z" data-name="Path 643"/></g><g data-name="Group 876"><g data-name="Group 874"><path d="M276.549 2329.017l-3.238.773 3.743 4.557 2.736-3.34z" data-name="Path 644"/><path d="M277.051 2334.839a.492.492 0 01-.38-.179l-3.743-4.557a.492.492 0 01.266-.79l3.238-.773a.488.488 0 01.372.059l3.24 1.99a.491.491 0 01.123.73l-2.736 3.34a.492.492 0 01-.38.18zm-2.864-4.753l2.863 3.486 2-2.441-2.587-1.588z" data-name="Path 645"/></g><g data-name="Group 875"><path d="M283.472 2329.047l3.22.769-3.722 4.531-3.181-3.34z" data-name="Path 646"/><path d="M282.968 2334.839a.492.492 0 01-.356-.153l-3.181-3.34a.491.491 0 01.125-.773l3.683-1.96a.489.489 0 01.345-.044l3.22.769a.492.492 0 01.266.79l-3.722 4.531a.491.491 0 01-.362.179zm-2.379-3.7l2.352 2.469 2.87-3.495-2.275-.543z" data-name="Path 647"/></g></g><g data-name="Group 877"><path d="M279.929 2331.006l-1.675 2.044 1.675 1.765 1.814-1.9z" data-name="Path 648"/><path d="M279.929 2335.528l-2.328-2.455 2.3-2.809 2.521 2.646zm-1.019-2.5l1.02 1.075 1.135-1.191-1.108-1.163z" data-name="Path 649"/></g><g data-name="Group 878"><path d="M280.795 2333.974l-.866.84-.741-.782-2.023 8.442h5.667z" data-name="Path 650"/><path d="M283.456 2342.967h-6.914l2.379-9.93 1.022 1.079 1.129-1.095zm-5.667-.983h4.421l-1.691-7.055-.6.586-.459-.485z" data-name="Path 651"/></g><g data-name="Group 885"><g data-name="Group 879"><path d="M280.974 2307.604l-.34-4.111h-1.267l-.338 4.111z" data-name="Path 652"/><path d="M281.507 2308.094h-3.013l.419-5.094h2.173zm-1.946-.983h.876l-.258-3.128h-.362z" data-name="Path 653"/></g><g data-name="Group 880"><path d="M288.446 2314.338a9.425 9.425 0 00-3.372-7.306 8.1 8.1 0 00-1.807-1.111l-.186-1.2a7.581 7.581 0 00-2.4-.673l.293 3.552h-1.946l.293-3.563a6.187 6.187 0 00-2.4.684l-.214 1.2a8.947 8.947 0 00-4.611 5.193 9.785 9.785 0 00-.54 3.224h16.893" data-name="Path 654"/><path d="M288.938 2314.83h-17.876v-.492a10.254 10.254 0 01.567-3.386 9.438 9.438 0 014.636-5.366l.209-1.171.194-.115a6.659 6.659 0 012.608-.751l.582-.052-.3 3.614h.878l-.3-3.612.591.063a8.1 8.1 0 012.556.716l.239.111.186 1.2a8.567 8.567 0 011.672 1.065 9.96 9.96 0 013.553 7.688zm-16.88-.983h15.885a8.935 8.935 0 00-3.178-6.434 7.6 7.6 0 00-1.7-1.044l-.244-.109-.186-1.2a7.194 7.194 0 00-1.416-.435l.286 3.465h-3.013l.287-3.486a5.849 5.849 0 00-1.42.441l-.217 1.211-.234.107a8.42 8.42 0 00-4.352 4.908 9.2 9.2 0 00-.498 2.575z" data-name="Path 655"/></g><g data-name="Group 881"><path d="M282.595 2304.799l.971-.15.647 4.17-.971.151z" data-name="Rectangle 311"/></g><g data-name="Group 882"><path d="M275.69 2308.808l.745-4.171.968.173-.745 4.17z" data-name="Rectangle 312"/></g><g data-name="Group 883"><path d="M278.818 2313.153h-5.747l-.027-.463a6.469 6.469 0 01.854-2.92l.854.486a6.493 6.493 0 00-.7 1.914h4.765z" data-name="Path 656"/></g><g data-name="Group 884"><path d="M288.54 2314.338h-17.071s-.769.03-.763 1.212h18.585c.009-1.182-.751-1.212-.751-1.212z" data-name="Path 657"/><path d="M289.78 2316.041h-19.562v-.489c-.007-1.312.805-1.69 1.236-1.706h17.109c.427.016 1.233.394 1.224 1.707zm-18.505-.983h17.452a.336.336 0 00-.214-.229h-17.014a.338.338 0 00-.225.229z" data-name="Path 658"/></g></g></g></g></svg>