<svg xmlns="http://www.w3.org/2000/svg" viewBox="0 0 40 40" fill="currentColor"><defs><clipPath id="a"><path d="M0 0h40v40H0z" data-name="Rectangle 347" transform="translate(529 1650)"/></clipPath><clipPath id="b"><path d="M0 0h38.375v39.187H0z" data-name="Rectangle 460"/></clipPath></defs><g clip-path="url(#a)" transform="translate(-529 -1650)"><g clip-path="url(#b)" data-name="Group 1387" transform="translate(529.812 1650.407)"><path d="M38.375 23.942v-6.069l-2.561 2.752V8.633h-4.938c.143-.15.226-.241.312-.327.7-.707 1.414-1.41 2.117-2.118l.012-.013.014-.014q.252-.253.5-.508c.048-.049.092-.1.134-.147l1.264-1.3L31.144 0l-.266.245-1.751 1.762Q25.935 5.2 22.746 8.4a.8.8 0 01-.618.265q-8.356-.01-16.712-.006c-.13 0-.262-.013-.416-.022V2.546h-.55a2.16 2.16 0 00-.307 0 4.334 4.334 0 00-3.207 1.7A5.246 5.246 0 000 6.376v24.738a9.121 9.121 0 00.5 1.515 4.155 4.155 0 003.938 2.313q8.262-.006 16.524 0h.376l-4.246 4.246 1.484-.053a2.843 2.843 0 00.367.009h19.432v-15.2M20.042 38c.12-.13.2-.229.3-.32l4.448-4.45.653-.653a8.72 8.72 0 00.136-.136l1.987-1.987.008-.007 9.326-9.33c.095-.094.194-.184.33-.313v4.926h-1.644v1.2h1.646v1.59h-1.653v1.2h1.641v1.665h-1.641v1.2h1.646v-.077c.009.114.019.186.019.258v1.43h-.024v-.1h-1.641v1.2h.569a1.18 1.18 0 00.182.018c.286.006.572 0 .888 0V38zm15.69-17.425V19.33l.083 1.295-.083-.051M33.259 4.565a.615.615 0 01-.114.163c-.048.051-.1.1-.145.149v.006c-.323.327-.661.635-.972.933L29.509 3.3c.253-.268.515-.561.793-.847l.015-.016.683-.723L33.559 4.2zM28.636 4.2l2.511 2.519-.991.947-2.5-2.518.98-.948M26.48 6.243a3.61 3.61 0 00.253-.312l2.569 2.6-11.6 11.593-2.542-2.565 1.455-1.452.458-.458c.077-.076.157-.15.23-.23l1.708-1.709a1.91 1.91 0 00.195-.195l1.182-1.182q3.046-3.043 6.088-6.089m-10.628 14.8q-.318.114-.642.222a.135.135 0 01-.065 0l-1.719.547.743-2.116c.029-.1.07-.213.12-.342l.006-.016c.071-.179.163-.39.273-.643l2.056 2.066c-.252.09-.508.184-.768.276M1.126 7.144A3.281 3.281 0 013.179 3.91a5.916 5.916 0 01.692-.21v19.843c-.006.7 0 1.4 0 2.1v.263c0 .573 0 .571-.541.7a4.665 4.665 0 00-2.205 1.312V7.146m3.3 26.67a3.1 3.1 0 01-3.273-2.8 3.187 3.187 0 011.9-3.117 3.78 3.78 0 01.817-.234H5v-.795c.007-1.057.013-2.114 0-3.171V9.819h16.288a5.38 5.38 0 01-.259.289l-1.259 1.26-1.425 1.425a1.401 1.401 0 00-.109.109l-2.36 2.36c-.59.587-1.18 1.173-1.759 1.772a1.8 1.8 0 00-.389.621q-.852 2.357-1.666 4.727a.427.427 0 01-.507.347c-.436-.027-.874-.009-1.311-.007a1.345 1.345 0 00-.224.02h-.639v1.2h16.992v-1.2h-.7a1.782 1.782 0 00-.278-.02H14.72l-.021-.049a2.488 2.488 0 01.227-.106l.7-.246 2.352-.8 1.917-1.926q4.76-4.747 9.505-9.507a.949.949 0 01.754-.307c1.337.015 2.673.007 4.009.007h.437v.451q0 5.6.007 11.206a.833.833 0 01-.282.65q-3.22 3.209-6.43 6.426l-1.1 1.1-.024.023-2.339 2.346c-.538.535-1.069 1.075-1.617 1.6a.818.818 0 01-.511.216q-8.937.017-17.875.007m17.052 1.127l-.253.253.134-.253z" data-name="Path 1001"/><path d="M27.877 33.495l-1.675 1.664h8.109v-8.105l-1.845 1.853q-2.292 2.3-4.588 4.588m5.284-3.526v4.04h-4.034l4.034-4.04" data-name="Path 1002"/></g></g></svg>