<svg xmlns="http://www.w3.org/2000/svg" viewBox="0 0 40 40" fill="currentColor"><defs><clipPath id="a"><path d="M0 0h40v40H0z" data-name="Rectangle 456" transform="translate(255 4383)"/></clipPath></defs><g clip-path="url(#a)" data-name="Mask Group 87" transform="translate(-255 -4383)"><g data-name="Group 1374"><path d="M274.616 4390.701c.157-.236.277-.413.394-.592a9.044 9.044 0 0110.18-3.765 9.046 9.046 0 016.475 8.712 19.8 19.8 0 01-2.566 9.266 42.336 42.336 0 01-8.9 11.2c-1.594 1.475-3.309 2.819-4.967 4.224a.773.773 0 01-1.118.081c-5.443-4.193-10.285-8.938-13.69-14.984a19.93 19.93 0 01-2.853-9.79 9.042 9.042 0 016.474-8.712 9.044 9.044 0 0110.18 3.765c.113.182.233.359.391.595zm-.06 28.153a1.969 1.969 0 00.245-.127 53.669 53.669 0 0011.35-11.628 23.212 23.212 0 004.4-10.781 8.165 8.165 0 00-5.767-8.99 8.027 8.027 0 00-9.575 4.667c-.109.245-.4.41-.6.612a3.018 3.018 0 01-.62-.69 8.036 8.036 0 00-8.977-4.729 8.007 8.007 0 00-6.374 7.952 18.191 18.191 0 002.32 8.449c3.276 6.188 8.172 10.943 13.598 15.265z" data-name="Path 995"/><path d="M282.609 4403.013a8.01 8.01 0 01-8.01 7.994 8.01 8.01 0 01-7.977-8.028 8.008 8.008 0 017.977-7.959 8.007 8.007 0 018.01 7.993zm-14.918-.034a6.939 6.939 0 006.858 6.959 6.939 6.939 0 006.992-6.892 6.938 6.938 0 00-6.858-6.958 6.938 6.938 0 00-6.993 6.892z" data-name="Path 996"/><path d="M267.691 4402.976a6.938 6.938 0 016.992-6.891 6.938 6.938 0 016.858 6.958 6.939 6.939 0 01-6.992 6.892 6.939 6.939 0 01-6.858-6.959zm8.525 1.634c.52 0 .94-.012 1.359 0 .523.019.789-.195.776-.74q-.021-.864 0-1.728c.013-.546-.255-.757-.777-.738-.435.016-.872 0-1.358 0 0-.515-.009-.954 0-1.392.013-.492-.194-.748-.705-.741q-.9.013-1.794 0c-.512-.007-.717.25-.7.742.012.454 0 .909 0 1.391-.519 0-.939.012-1.358 0-.522-.019-.79.192-.776.739q.021.863 0 1.728c-.013.546.254.758.776.739.436-.016.872 0 1.359 0 0 .514.009.953 0 1.391-.013.491.193.749.7.742q.9-.013 1.794 0c.511.007.718-.251.7-.742-.006-.434.003-.873.003-1.387z" data-name="Path 997"/><path d="M276.216 4404.613c0 .514-.009.953 0 1.391.013.491-.194.749-.7.742q-.9-.013-1.794 0c-.512.007-.717-.251-.7-.742.012-.438 0-.877 0-1.391-.486 0-.923-.012-1.358 0-.522.019-.789-.194-.776-.739q.021-.864 0-1.728c-.014-.546.254-.758.776-.739.419.016.839 0 1.358 0 0-.482.009-.937 0-1.391-.013-.491.192-.749.7-.742q.9.013 1.794 0c.512-.007.718.249.705.741-.011.438 0 .877 0 1.392.486 0 .922.013 1.358 0 .522-.019.79.192.777.738q-.021.863 0 1.728c.013.545-.253.759-.776.74-.425-.01-.845 0-1.364 0zm-4.234-2.132v1.063c.441 0 .857.019 1.271 0 .591-.033.869.208.836.815-.023.432 0 .866 0 1.286h1.064v-1.414c0-.46.228-.689.694-.683s.92 0 1.4 0v-1.064c-.457 0-.875-.015-1.291 0-.559.026-.827-.206-.8-.781.019-.436 0-.873 0-1.307h-1.064c0 .487-.007.928 0 1.369.011.5-.231.729-.729.717-.447-.009-.886 0-1.381 0z" data-name="Path 998"/></g></g></svg>