<svg xmlns="http://www.w3.org/2000/svg" viewBox="0 0 40 40" fill="currentColor"><defs><clipPath id="a"><path d="M0 0h40v40H0z" data-name="Rectangle 333" transform="translate(717 768)"/></clipPath></defs><g clip-path="url(#a)" data-name="Scan to BIM" transform="translate(-717 -768)"><g data-name="Group 926"><path d="M756.994 800.708c0-.563-.215-.777-.777-.78h-1.159v-.593-21.611a2.227 2.227 0 00-2.3-2.316h-6.728c0-.41-.02-.76.005-1.107a.807.807 0 00-.558-.869q-4.02-1.84-8.03-3.705a.991.991 0 00-.918.014c-1.016.485-7.074 3.272-8.087 3.732a.718.718 0 00-.478.753c.017.385 0 .77 0 1.183h-.485c-2.043 0-4.087.042-6.128-.015a2.389 2.389 0 00-2.434 2.418c.032 7.19.016 14.38.016 21.571v.494a.582.582 0 01-.117.042c-.349 0-.7 0-1.048.006-.556.005-.769.22-.77.786v3.387a2.226 2.226 0 002.261 2.277h35.477a2.229 2.229 0 002.258-2.24c.008-1.142 0-2.284 0-3.427zm-12.256-25.535V782.406c0 .195-.009.335-.236.439-2.208 1-4.407 2.027-6.608 3.043a2.666 2.666 0 01-.254.087v-1.88c0-1.787 0-3.573.009-5.36a.527.527 0 01.2-.4 812.714 812.714 0 016.712-3.1 1.431 1.431 0 01.181-.062zm-12.945-1.8c0 .008 0 .015.005.023s1.778-.872 1.947-.941c1.016-.415 2-.913 3-1.363a.608.608 0 01.442-.031q3.235 1.477 6.458 2.977l.168.084-2.327 1.076c-1.41.652-2.818 1.307-4.234 1.945a.645.645 0 01-.476.014c-2.12-.965-4.233-1.946-6.348-2.924-.047-.022-.092-.051-.224-.125zm-2.537 1.939a1.233 1.233 0 01.029-.156c.57.261 1.127.514 1.683.77 1.7.786 3.407 1.569 5.1 2.369a.516.516 0 01.268.359c.015 2.391.011 4.783.01 7.174a1.081 1.081 0 01-.029.158l-2.593-1.2c-1.4-.646-2.8-1.287-4.191-1.946a.516.516 0 01-.27-.355c-.009-2.39-.004-4.781-.003-7.172zm-9.033 24.142v-21.452c0-.969.335-1.3 1.307-1.3h6.418v1.968h.014v.416c0 1.3.01 2.607-.005 3.91a.783.783 0 00.508.815c2.717 1.246 5.426 2.51 8.147 3.744a1.028 1.028 0 00.759.005c2.734-1.239 5.454-2.505 8.18-3.76a.768.768 0 00.479-.8c-.014-1.436.025-6.281.025-6.281.11-.008.226-.02.344-.02h6.169c.83 0 1.2.372 1.2 1.21v21.998h-33.546zm19.144 1.774c-.1.427-.2.832-.3 1.256h-4.142c-.1-.391-.2-.8-.316-1.256zm16.313 2.99a.926.926 0 01-.912.862 3.87 3.87 0 01-.4.008h-34.741c-1.018 0-1.337-.323-1.337-1.355v-2.5h14.967c.167.651.327 1.3.5 1.94.13.493.3.624.786.624 1.638 0 3.278 0 4.916.005a.7.7 0 00.779-.59c.155-.652.329-1.3.5-1.97h14.956c0 .999.027 1.993-.01 2.978z" data-name="Path 687"/><path d="M733.134 791.03v-1.969c0-.479.239-.748.646-.746s.638.272.641.752 0 .937 0 1.468c.73-.277 1.42-.521 2.1-.8a1.2 1.2 0 01.965-.006c2.632 1.021 5.27 2.026 7.9 3.044a1.329 1.329 0 01.507.305c.32.355.146.844-.368 1.044q-2.918 1.135-5.841 2.255c-.749.289-1.49.6-2.252.852a1.361 1.361 0 01-.842 0c-2.631-.99-5.251-2.009-7.874-3.019-.087-.034-.177-.063-.264-.1a.649.649 0 01-.478-.625.653.653 0 01.492-.655q2.1-.8 4.2-1.614c.142-.054.29-.117.468-.186zm.013 1.406l-2.67 1.029c.152.07.209.1.268.123 2.012.774 4.023 1.551 6.041 2.311a.821.821 0 00.529-.022c1.167-.436 2.327-.891 3.489-1.339l2.729-1.053c-.176-.08-.267-.127-.361-.163-1.913-.736-3.829-1.464-5.738-2.211a1 1 0 00-.838-.006 14.1 14.1 0 01-1.651.629.638.638 0 00-.534.765c.041.7-.183.986-.65.976s-.664-.327-.618-1.039z" data-name="Path 688"/><path d="M744.742 787.348c0-.523-.005-1.046 0-1.569a.627.627 0 01.659-.691.625.625 0 01.626.684q.009 1.569 0 3.138a.627.627 0 01-.66.691.627.627 0 01-.625-.685c-.006-.522 0-1.045 0-1.568z" data-name="Path 689"/><path d="M729.258 789.3v1.529a.632.632 0 01-.643.709.628.628 0 01-.644-.707q-.007-1.549 0-3.1a.627.627 0 01.642-.709.629.629 0 01.645.707c.004.524 0 1.048 0 1.571z" data-name="Path 690"/><path d="M742.805 788.011c0 .322.01.644 0 .965a.62.62 0 01-.642.627.614.614 0 01-.64-.627q-.018-.985 0-1.97a.613.613 0 01.64-.626.618.618 0 01.641.626c.011.334.001.67.001 1.005z" data-name="Path 691"/></g></g></svg>