<svg xmlns="http://www.w3.org/2000/svg" viewBox="0 0 40 40" fill="currentColor"><defs><clipPath id="a"><path d="M0 0h40v40H0z" data-name="Rectangle 344" transform="translate(529 1650)"/></clipPath><clipPath id="b"><path d="M0 0h41.333v36H0z" data-name="Rectangle 338"/></clipPath></defs><g clip-path="url(#a)" data-name="Show off space" transform="translate(-529 -1650)"><g data-name="Group 939"><g clip-path="url(#b)" data-name="Group 938" transform="translate(529 1652.667)"><path d="M31.126 11.274a.856.856 0 000-.384v-.755H14.808v1.912h16.318z" data-name="Path 700"/><path d="M14.667 14.667h16V16h-16z" data-name="Rectangle 337"/><path d="M31.126 20a.753.753 0 00.022-.139.744.744 0 00-.022-.227v-.767H14.808v1.912h16.318z" data-name="Path 701"/><path d="M35.588 33.846V5.29h-4.653V0H14.808v5.29h-4.717v28.556H5.629v-5.205a4.4 4.4 0 10-1.912 0v5.205H-.171v1.912h42.133v-1.912zm-33.783-9.5a2.868 2.868 0 112.868 2.868 2.872 2.872 0 01-2.868-2.868M16.72 1.912h12.3V5.29h-12.3zm11.729 31.934H17.868v-1.721h10.581zm-8.669-8.669h2.231v5.036H19.78zm4.143 0h2.231v5.036h-2.231zm9.752 8.669h-3.314v-3.633h-2.295v-6.948h-10.2v6.948h-1.911v3.633h-3.951V7.2h21.671z" data-name="Path 702"/></g></g></g></svg>