<svg xmlns="http://www.w3.org/2000/svg" viewBox="0 0 60 40" fill="currentColor"><defs><clipPath id="a"><path d="M0 0h60v40H0z" data-name="Rectangle 325" transform="translate(255 777)"/></clipPath></defs><g clip-path="url(#a)" data-name="Pre-construction survey" transform="translate(-255 -777)"><g data-name="Group 944"><path d="M284.688 777c.3.087.612.15.9.266a3.931 3.931 0 012.468 2.769c.075.283.187.351.452.339a2.718 2.718 0 012.911 1.82c.038.094.242.171.37.173.973.014 1.946.006 2.919.008a3.372 3.372 0 013.585 3.576q.008 3.485 0 6.97a.424.424 0 00.25.468 9.027 9.027 0 013.826 12.849c-.02.034-.037.069-.08.151.454.449.913.913 1.389 1.36a.49.49 0 00.328.06 1.413 1.413 0 011.134.449c1.488 1.485 3 2.946 4.451 4.467a6.885 6.885 0 01.839 1.476v.946c-.022.031-.058.059-.064.092a2.7 2.7 0 01-4.638 1.226c-1.433-1.467-2.9-2.9-4.359-4.343a1.463 1.463 0 01-.5-1.227.449.449 0 00-.093-.315c-.431-.459-.876-.9-1.314-1.351a1.536 1.536 0 01-.178.085 1.355 1.355 0 00-1.007 1.686 8.86 8.86 0 01-.044 2.24 3.332 3.332 0 01-3.462 2.774h-20.965a3.4 3.4 0 01-3.762-2.81.955.955 0 00-.044-.1v-27.829a1.453 1.453 0 00.068-.182 3.256 3.256 0 012.964-2.676c1.136-.094 2.285-.041 3.427-.039a.435.435 0 00.491-.309 2.578 2.578 0 012.427-1.7c.258-.012.517 0 .773 0a4.044 4.044 0 012.321-3 10.138 10.138 0 011.111-.372zm-7.954 6.719h-3.072a2.068 2.068 0 00-2.317 2.305v26.323a2.071 2.071 0 002.34 2.319h19.742c.513 0 1.027.011 1.54 0a1.907 1.907 0 001.913-1.57 24.033 24.033 0 00.023-2.748 1.321 1.321 0 00-.163.014 8.991 8.991 0 01-9.036-2.878.758.758 0 00-.5-.208c-1.856-.015-3.711-.008-5.567-.01-.541 0-.84-.239-.845-.664s.294-.677.828-.677h4.541c.136 0 .272-.011.456-.02a9.364 9.364 0 01-1.109-4.011h-3.909c-.508 0-.8-.255-.806-.668s.283-.667.79-.674c.382-.005.763 0 1.145 0h2.81l.259-1.346h-2.03c-.75 0-1.5.014-2.25-.007-.606-.017-.958-.606-.6-1.027a1.055 1.055 0 01.712-.3 138.32 138.32 0 014.224-.007.6.6 0 00.63-.376 8.9 8.9 0 017.286-4.973 9.484 9.484 0 013.13.253.448.448 0 00.042-.122c0-2.377.016-4.755-.018-7.132a1.862 1.862 0 00-1.585-1.724 13.577 13.577 0 00-1.692-.062c-.681-.009-1.362 0-2.084 0v.624a1.337 1.337 0 01-1.385 1.4q-6.021.009-12.042 0a1.344 1.344 0 01-1.4-1.354c-.01-.217-.001-.425-.001-.68zm25.613 17.853a7.752 7.752 0 10-7.836 7.707 7.768 7.768 0 007.836-7.707zm-24.285-17.2h12.153v-.456c0-.328.016-.658-.009-.985a1.311 1.311 0 00-1.277-1.214c-.407-.015-.816 0-1.224-.007-.6-.006-.828-.219-.873-.822a2.691 2.691 0 00-5.376.03c-.038.574-.263.786-.851.792-.421 0-.843-.009-1.263.009a1.237 1.237 0 00-1.193.972 15.849 15.849 0 00-.087 1.684zm24.191 26.7c.062.066.138.153.219.235q1.717 1.711 3.436 3.42c.307.306.605.622.929.91a1.32 1.32 0 001.4.26 1.211 1.211 0 00.829-1.056 1.467 1.467 0 00-.49-1.272q-2.115-2.093-4.22-4.2c-.072-.072-.15-.137-.211-.194zm.329-2.344l-1.129-1.165-.848.816 1.165 1.171z" data-name="Path 704"/><path d="M273.378 791.781c0-.446-.01-.892 0-1.338a1.285 1.285 0 011.282-1.322q1.4-.035 2.8 0a1.3 1.3 0 011.3 1.314q.026 1.357 0 2.715a1.326 1.326 0 01-1.328 1.335q-1.36.03-2.72 0a1.315 1.315 0 01-1.328-1.327c-.017-.459-.005-.913-.006-1.377zm4.013 1.354v-2.648h-2.632v2.648z" data-name="Path 707"/><path d="M273.378 799.829c0-.446-.012-.892 0-1.338a1.311 1.311 0 011.341-1.311q1.34-.018 2.681 0a1.328 1.328 0 011.355 1.346q.022 1.338 0 2.676a1.317 1.317 0 01-1.351 1.344q-1.34.019-2.681 0a1.3 1.3 0 01-1.348-1.341c-.012-.459 0-.918 0-1.377zm1.365 1.348h2.641v-2.635h-2.641z" data-name="Path 708"/><path d="M273.376 807.915c0-.433-.008-.866 0-1.3a1.3 1.3 0 011.29-1.361 38.444 38.444 0 012.8 0 1.309 1.309 0 011.292 1.366q.017 1.318 0 2.637a1.326 1.326 0 01-1.337 1.367q-1.359.04-2.72 0a1.315 1.315 0 01-1.324-1.373c-.008-.444-.001-.89-.001-1.336zm1.363 1.337h2.655v-2.631h-2.655z" data-name="Path 709"/><path d="M287.491 791.118h-5.763a2.016 2.016 0 01-.394-.015.612.612 0 01-.531-.555.605.605 0 01.385-.7 1.266 1.266 0 01.461-.072q5.862-.006 11.724 0a1.925 1.925 0 01.276.009.665.665 0 01.6.707.638.638 0 01-.639.621c-.315.017-.631.006-.947.006z" data-name="Path 710"/><path d="M284.131 793.807h-2.524c-.518 0-.8-.236-.813-.649-.01-.43.289-.692.817-.694q2.543-.006 5.087 0c.514 0 .837.285.822.7s-.314.642-.827.644c-.854.001-1.71-.001-2.562-.001z" data-name="Path 711"/><path d="M284.118 809.95h-2.524c-.508 0-.8-.246-.8-.662s.29-.677.79-.678q2.563-.005 5.127 0c.491 0 .807.268.812.667s-.31.671-.8.674c-.869.002-1.737-.001-2.605-.001z" data-name="Path 712"/><path d="M293.304 804.166l2.275-3.422 2.025-3.053a2.724 2.724 0 01.2-.29.673.673 0 01.891-.122.657.657 0 01.22.836 2.394 2.394 0 01-.183.3q-2.319 3.5-4.64 6.991c-.439.661-.834.687-1.38.1-.724-.78-1.451-1.558-2.174-2.34-.393-.426-.418-.8-.086-1.1s.7-.216 1.091.2l1.761 1.9z" data-name="Path 713"/><path d="M283.489 780.669c0-.654.2-.964.643-.979s.7.326.7.978a2.68 2.68 0 01-.021.47.675.675 0 01-.7.568.666.666 0 01-.622-.645c-.009-.129 0-.261 0-.392z" data-name="Path 714"/></g></g></svg>