<svg xmlns="http://www.w3.org/2000/svg" viewBox="0 0 40 40" fill="currentColor"><defs><clipPath id="a"><path d="M0 0h40v40H0z" data-name="Rectangle 291" transform="translate(255 4728)"/></clipPath><clipPath id="b"><path d="M0 0h40v37.614H0z" data-name="Rectangle 290"/></clipPath></defs><g clip-path="url(#a)" data-name="Mask Group 54" transform="translate(-255 -4728)"><g data-name="Group 824"><g clip-path="url(#b)" data-name="Group 823" transform="translate(255 4729)"><path d="M32.916 37.614H.529A.529.529 0 010 37.085V.529a.529.529 0 01.529-.53h27.713a.529.529 0 01.382.163L33.3 5.027a.529.529 0 01.148.367v31.691a.529.529 0 01-.529.529m-31.86-1.058h31.327V5.606l-4.37-4.547H1.059z" data-name="Path 589"/><path d="M32.915 5.923h-4.674a.529.529 0 01-.529-.529V.53a.529.529 0 01.911-.367l4.674 4.864a.529.529 0 01-.382.9m-4.144-1.059h2.9l-2.9-3.02z" data-name="Path 590"/><path d="M24.182 26.986H9.356a.529.529 0 01-.529-.529V11.635a.529.529 0 01.529-.529h14.826a.529.529 0 01.529.529v14.822a.529.529 0 01-.529.529M9.89 25.927h13.766V12.165H9.89z" data-name="Path 591"/><path d="M7.809 10.272h2.91v2.91h-2.91z" data-name="Rectangle 285"/><path d="M10.719 13.712H7.814a.529.529 0 01-.529-.529v-2.91a.529.529 0 01.529-.529h2.91a.529.529 0 01.529.529v2.91a.529.529 0 01-.529.529m-2.38-1.059h1.851v-1.851H8.339z" data-name="Path 592"/><path d="M22.728 10.18h2.91v2.91h-2.91z" data-name="Rectangle 286"/><path d="M25.637 13.619h-2.91a.529.529 0 01-.529-.529v-2.91a.529.529 0 01.529-.529h2.91a.529.529 0 01.529.529v2.91a.529.529 0 01-.529.529m-2.38-1.059h1.851v-1.851h-1.851z" data-name="Path 593"/><path d="M19.728 22.536h-5.913a.529.529 0 01-.529-.529v-5.914a.529.529 0 01.529-.529h5.913a.529.529 0 01.529.529v5.914a.529.529 0 01-.529.529m-5.383-1.059h4.854v-4.855h-4.854z" data-name="Path 594"/><path d="M7.809 24.525h2.91v2.911h-2.91z" data-name="Rectangle 287"/><path d="M10.719 27.964H7.814a.529.529 0 01-.529-.529v-2.911a.529.529 0 01.529-.529h2.91a.529.529 0 01.529.529v2.911a.529.529 0 01-.529.529m-2.38-1.059h1.851v-1.852H8.339z" data-name="Path 595"/><path d="M22.728 24.525h2.91v2.911h-2.91z" data-name="Rectangle 288"/><path d="M25.637 27.964h-2.91a.529.529 0 01-.529-.529v-2.911a.529.529 0 01.529-.529h2.91a.529.529 0 01.529.529v2.911a.529.529 0 01-.529.529m-2.38-1.059h1.851v-1.852h-1.851z" data-name="Path 596"/><path d="M35.991 5.873h3.48v26.29h-3.48z" data-name="Rectangle 289"/><path d="M39.47 32.69h-3.48a.529.529 0 01-.529-.529V5.873a.529.529 0 01.529-.529h3.48a.529.529 0 01.529.529v26.29a.529.529 0 01-.529.529m-2.95-1.059h2.421V6.403H36.52z" data-name="Path 597"/><path d="M39.47 6.403h-3.48a.529.529 0 01-.529-.529V4.028a.529.529 0 01.529-.529h3.48a.529.529 0 01.529.529v1.845a.529.529 0 01-.529.529m-2.95-1.059h2.421v-.786H36.52z" data-name="Path 598"/><path d="M39.47 4.557h-3.48a.529.529 0 01-.529-.529v-1a2.27 2.27 0 014.539 0v1a.529.529 0 01-.529.529m-2.95-1.059h2.421v-.474a1.211 1.211 0 00-2.421 0z" data-name="Path 599"/><path d="M37.732 36.859a.529.529 0 01-.489-.325l-1.741-4.167a.529.529 0 01.488-.733h3.48a.529.529 0 01.489.733l-1.739 4.167a.529.529 0 01-.488.326m-.946-4.167l.946 2.264.945-2.264z" data-name="Path 600"/><path d="M37.731 36.859a.529.529 0 01-.488-.325l-.859-2.057a.529.529 0 01.488-.733h1.718a.529.529 0 01.488.734l-.859 2.057a.529.529 0 01-.488.325m-.064-2.057l.064.154.065-.154z" data-name="Path 601"/><path d="M37.731 32.69a.529.529 0 01-.529-.529V5.873a.53.53 0 111.059 0v26.29a.529.529 0 01-.529.529" data-name="Path 602"/></g></g></g></svg>