<svg xmlns="http://www.w3.org/2000/svg" viewBox="0 0 60 40" fill="currentColor"><defs><clipPath id="a"><path d="M0 0h40v60H0z" data-name="Rectangle 335" transform="rotate(90 293.5 1077.5)"/></clipPath></defs><g clip-path="url(#a)" data-name="Drone mapping" transform="translate(-1311 -784)"><g data-name="Group 928"><path d="M1315.653 791.001a1.216 1.216 0 011.165-.581c1.831.018 3.661.007 5.516.007.063-.138.089-.317.191-.389a1.6 1.6 0 01.78-.392.9.9 0 01.684.435.526.526 0 00.6.349c1.667-.009 3.333 0 5 0 .132 0 .265-.007.4 0a.9.9 0 01.9.875.906.906 0 01-.916.859c-.131.01-.264 0-.4 0h-5.419v1.642h1.369a1.914 1.914 0 011.624.68.6.6 0 00.418.171c2.277.01 4.554.013 6.831-.006a.634.634 0 00.459-.3 6.726 6.726 0 015.864-3.909 6.716 6.716 0 016.364 3.817.616.616 0 00.656.42c2.194-.017 4.389 0 6.584-.021a.976.976 0 00.618-.268 1.93 1.93 0 011.424-.576h1.474v-1.642H1352.107a.913.913 0 01-.986-.89.9.9 0 01.976-.846c.627-.015 1.254 0 1.881 0h3.515a.463.463 0 00.486-.282 1.064 1.064 0 01.747-.5 1.041 1.041 0 01.764.465.551.551 0 00.574.315c1.667-.006 3.333 0 5 0h.347a.872.872 0 01.936.872.857.857 0 01-.944.862c-1.188.015-2.376.005-3.564.006h-2.2v1.642c.5 0 .973-.006 1.447 0a1.735 1.735 0 011.892 1.913c0 1.04.006 2.079 0 3.119a1.686 1.686 0 01-1.738 1.756c-1.667.008-3.334.025-5-.015a4.437 4.437 0 01-1.1-.363 1.038 1.038 0 00-.55-.092c-.53.169-1.042.394-1.586.607.573 1.833 1.135 3.635 1.7 5.438 1.017 3.248 1.992 6.51 3.073 9.737a1.774 1.774 0 01-1.813 2.43c-.408-.044-.824 0-1.237-.007a1.7 1.7 0 01-1.838-1.331q-1.538-4.218-3.071-8.437c-.7-1.915-1.393-3.83-2.108-5.8-.873.337-1.725.662-2.573 1a.433.433 0 00-.206.19c-.278.538-.545 1.081-.854 1.7h1.142a2.449 2.449 0 012.523 2.391q.072 3.513 0 7.028a2.462 2.462 0 01-2.549 2.431q-4.183.038-8.366 0a2.5 2.5 0 01-2.583-2.558q-.047-3.39 0-6.781a2.483 2.483 0 012.612-2.513h1.068c-.317-.63-.6-1.2-.9-1.763a.534.534 0 00-.275-.186c-.8-.309-1.6-.611-2.455-.937-.081.213-.162.419-.237.627l-4.931 13.538a1.748 1.748 0 01-1.987 1.4h-1.188a1.694 1.694 0 01-1.735-2.351q1.326-4.262 2.667-8.519l2.109-6.728c-.593-.23-1.168-.464-1.753-.67-.088-.031-.221.068-.334.106a4.816 4.816 0 01-1.278.411c-1.583.05-3.167.022-4.752.019a1.7 1.7 0 01-1.858-1.836v-3.119a1.706 1.706 0 011.771-1.832c.509-.019 1.02 0 1.564 0v-1.643h-1.283c-1.419 0-2.838-.013-4.257.007a1.219 1.219 0 01-1.165-.581zm38.839 5.369h-7.456c-.886 0-.98-.067-1.291-.908a5.021 5.021 0 00-4.768-3.292 5.007 5.007 0 00-4.734 3.336c-.273.756-.421.864-1.227.864h-7.509c0 .539.028 1.017-.009 1.489-.029.369.132.515.449.636 3.181 1.213 6.356 2.442 9.536 3.656a2.085 2.085 0 00.719.126q2.8.015 5.594 0a1.671 1.671 0 00.579-.079q4.91-1.873 9.812-3.771a.5.5 0 00.291-.32c.03-.555.014-1.114.014-1.737zm-13.489 19.4h4.008c.775 0 1.043-.269 1.044-1.034v-6.333c0-.748-.3-1.051-1.05-1.053q-4.007-.008-8.015 0c-.751 0-1.042.305-1.043 1.058v6.333c0 .759.273 1.027 1.049 1.029 1.335.007 2.671.005 4.007.005zm-13.577.849l5.264-14.479-2.091-.794-4.787 15.273zm28.754-.032l-4.779-15.243-2.079.8c.059.171.1.295.145.417l4.645 12.783c.495 1.36.5 1.359 1.94 1.283a.919.919 0 00.126-.036zm-30.443-21.015h-4.979v3.294h4.979zm35.509 3.293v-3.29h-4.979v3.29zm-22.225 5.129c.263.526.5 1.022.761 1.51a.308.308 0 00.223.14q.985.017 1.971 0a.31.31 0 00.234-.122c.263-.5.509-1.006.783-1.556h-3.727c-.064.007-.125.019-.246.032z" data-name="Path 694"/><path d="M1340.985 809.03a2.577 2.577 0 012.569 2.533 2.581 2.581 0 01-2.541 2.561 2.581 2.581 0 01-2.569-2.531 2.584 2.584 0 012.541-2.563zm.828 2.53a.8.8 0 00-.818-.807.8.8 0 00-.808.818.788.788 0 00.842.826.788.788 0 00.784-.837z" data-name="Path 695"/></g></g></svg>