<svg xmlns="http://www.w3.org/2000/svg" viewBox="0 0 40 40" fill="currentColor"><defs><clipPath id="a"><path d="M0 0h40v40H0z" data-name="Rectangle 332" transform="translate(369 774)"/></clipPath></defs><g clip-path="url(#a)" data-name="3D laser scanning" transform="translate(-369 -774)"><g data-name="Group 925"><path d="M403.131 797.421a.807.807 0 00-.942-.808.772.772 0 00-.583.36.973.973 0 00-.14.513c-.01.663 0 1.327 0 2.118-.95-.953-1.783-1.8-2.624-2.631a.87.87 0 00-1.328-.1.865.865 0 00.124 1.291c.908.917 1.818 1.833 2.741 2.733a3.28 3.28 0 00.621.384l-.163.2-1.685.949a3.788 3.788 0 00-.339-.458c-.845-.855-1.691-1.712-2.553-2.55a.832.832 0 00-1.42.222.872.872 0 00.278 1.031c.679.672 1.356 1.348 2.045 2.035.177.179.356.356.536.536-.453.257-.875.465-1.261.723a.494.494 0 01-.751-.091q-.577-.586-1.158-1.168-.992-1-1.99-2-1.252-1.254-2.5-2.513a1.18 1.18 0 01-.289-.667c-.057-.582-.336-.922-.847-.924s-.8.336-.847.918a1 1 0 01-.214.6q-1.139 1.155-2.284 2.3t-2.291 2.284c-.41.409-.822.815-1.233 1.222a.568.568 0 01-.512.093c-.467-.22-.908-.5-1.391-.773.139-.148.257-.275.378-.4l.145-.145c.691-.692 1.39-1.375 2.07-2.079a.845.845 0 00-.28-1.47.924.924 0 00-.98.331c-.956.964-1.918 1.921-2.893 2.895l-1.717-.985c.207-.17.35-.271.473-.392q1.356-1.348 2.7-2.7c.086-.086.179-.169.257-.261a.845.845 0 00-.036-1.218.84.84 0 00-1.215.078c-.823.815-1.634 1.639-2.545 2.557l-.148.149v-2.03c0-.622-.308-.974-.836-.975s-.834.35-.836.973c0 1.327.01 2.652-.007 3.978a.915.915 0 00.523.883l.474.266q.414.235.83.467l6.009 3.378q1.528.858 3.06 1.713l2.841 1.581a1.232 1.232 0 001.014-.006q1.561-.866 3.121-1.735 1.388-.775 2.774-1.553 3.151-1.769 6.3-3.554l.516-.292.5-.282a1.055 1.055 0 00.5-.717c.038-1.422.023-2.854.008-4.284zm-13.39 3.041l2.247 2.248.548.548 1.852 1.849c-.43.244-.906.53-1.4.78a.443.443 0 01-.389-.1l-.062-.06q-1.314-1.287-2.6-2.6a.721.721 0 01-.184-.415.321.321 0 010-.035c-.023-.732-.012-1.467-.012-2.215zm-1.678.011c0 .725.005 1.48-.006 2.236v.15c0 .085-.091.181-.16.252-.769.773-1.54 1.543-2.334 2.336-.181.183-.365.365-.551.551l-1.582-.889 2.133-2.133.267-.267zm-.028 7.231l-1.45-.825.34-.325 1.109-1.061zm3.067-.748l-1.332.751v-2.248c.328.367.646.726.975 1.1l.356.398z" data-name="Path 681"/><path d="M403.145 784.989a.944.944 0 00-.592-.942l-.947-.473-4.433-2.21q-2.319-1.159-4.636-2.32l-2.913-1.463a1.43 1.43 0 00-1.424 0q-1.318.663-2.638 1.324-2.461 1.233-4.924 2.462-2.074 1.036-4.145 2.079l-1.264.637a1.06 1.06 0 00-.533.737c0 .131 0 .261-.005.392a297.578 297.578 0 00-.013 6.408.8.8 0 001 .79.833.833 0 00.67-.924c-.008-1.708 0-3.416 0-5.187.061.02.109.032.148.043a.771.771 0 01.114.04q4.479 2.241 8.954 4.491 1.1.551 2.193 1.106a.779.779 0 01.3.506.852.852 0 00.836.774.774.774 0 00.831-.755.582.582 0 01.394-.584l2.419-1.207q4.232-2.109 8.461-4.225c.134-.067.278-.117.466-.2v5.963a1.276 1.276 0 00.141.635.742.742 0 00.719.368c.52-.012.812-.364.812-1 0-2.351-.007-4.7.007-7.051l.002-.214zm-4.46.753q-3.074 1.538-6.147 3.073-1.622.81-3.245 1.613a.857.857 0 01-.657.053q-1.539-.76-3.074-1.526-3.75-1.867-7.492-3.746l-.365-.183c-.06-.029-.114-.068-.259-.159l6.1-3.047.91-.456 1.1-.552c.993-.5 1.987-.995 2.986-1.48a.853.853 0 01.656-.032q1.668.825 3.334 1.656c.274.135.546.272.819.409q3.367 1.679 6.733 3.367c.071.035.137.082.274.169l-.615.31z" data-name="Path 682"/><path d="M376.492 774.016v1.635a1.235 1.235 0 01-.209.018c-1.725.007-3.45 0-5.175 0h-.625V781.362h-1.67q-.017-3.275 0-6.55a.771.771 0 01.833-.811q3.346-.015 6.693 0a.9.9 0 01.153.015z" data-name="Path 683"/><path d="M408.996 781.364h-1.669c-.005-1.872 0-3.744 0-5.692h-5.724v-1.671c1.158-.01 2.314 0 3.472 0h2.98c.631 0 .936.3.938.921q.011 3.222.003 6.442z" data-name="Path 684"/><path d="M376.492 812.539v1.641a.756.756 0 01-.127.01q-3.374.014-6.744 0a.774.774 0 01-.808-.837q-.013-3.346 0-6.694a.83.83 0 01.006-.1h1.648a1.086 1.086 0 01.012.167c.007 1.726 0 3.45 0 5.176v.622h5.409c.156 0 .314-.007.47 0a.942.942 0 01.134.015z" data-name="Path 685"/><path d="M408.988 813.416a.778.778 0 01-.868.776q-3.261.008-6.517 0v-1.667c1.694-.007 3.385 0 5.078 0h.641v-5.444c0-.156-.008-.314 0-.47 0-.018 0-.035.005-.052h1.655v.063q.027 3.394.006 6.794z" data-name="Path 686"/><path d="M370.276 794.284h36.389v1.588h-36.389z" data-name="Rectangle 331"/></g></g></svg>