<svg xmlns="http://www.w3.org/2000/svg" viewBox="0 0 40 40" fill="currentColor"><defs><clipPath id="a"><path d="M0 0h40v40H0z" data-name="Rectangle 239" transform="translate(480 4728)"/></clipPath></defs><g clip-path="url(#a)" data-name="Mask Group 49" transform="translate(-480 -4728)"><g data-name="Group 825"><g data-name="Group 827"><g data-name="Group 825"><path d="M516.457 4755.94a1.723 1.723 0 01-1.723 1.723h-29.467a1.723 1.723 0 01-1.723-1.723v-18.7a1.722 1.722 0 011.723-1.722h29.467a1.722 1.722 0 011.723 1.722z" data-name="Path 603"/><path d="M514.734 4758.077h-29.467a2.14 2.14 0 01-2.138-2.137v-18.7a2.14 2.14 0 012.138-2.137h29.467a2.14 2.14 0 012.138 2.137v18.7a2.14 2.14 0 01-2.138 2.137zm-29.467-22.143a1.309 1.309 0 00-1.308 1.307v18.7a1.31 1.31 0 001.308 1.307h29.467a1.31 1.31 0 001.308-1.307v-18.7a1.309 1.309 0 00-1.308-1.307z" data-name="Path 604"/></g><g data-name="Group 826"><path d="M485.494 4737.521h29.012v18.139h-29.012z" data-name="Rectangle 292"/><path d="M514.506 4756.075h-29.012a.415.415 0 01-.415-.415v-18.14a.415.415 0 01.415-.415h29.012a.415.415 0 01.415.415v18.14a.415.415 0 01-.415.415zm-28.6-.829h28.183v-17.31h-28.181z" data-name="Path 605"/></g></g><g data-name="Group 828"><path d="M483.217 4760.482h33.566a2.886 2.886 0 002.8-2.819h-39.17a2.886 2.886 0 002.804 2.819z" data-name="Path 606"/><path d="M516.783 4760.896h-33.567a3.281 3.281 0 01-3.215-3.195.415.415 0 01.413-.454h39.17a.415.415 0 01.413.454 3.281 3.281 0 01-3.214 3.195zm-33.565-.829h33.565a2.437 2.437 0 002.319-1.99h-38.2a2.437 2.437 0 002.316 1.99z" data-name="Path 607"/></g><g data-name="Group 829"><path d="M495.485 4754.198h-8.377v-9.372h.829v8.542h7.547z" data-name="Path 608"/></g><g data-name="Group 831"><path d="M496.725 4757.663h6.551v1.41h-6.551z" data-name="Rectangle 293"/><path d="M503.272 4759.487h-6.551a.415.415 0 01-.415-.415v-1.41a.415.415 0 01.415-.415h6.551a.415.415 0 01.415.415v1.41a.415.415 0 01-.415.415zm-6.136-.83h5.722v-.58h-5.722z" data-name="Path 610"/></g><path d="M503.5 4746.59l-6 3.5v-7z" data-name="Polygon 2"/></g></g></svg>