<svg xmlns="http://www.w3.org/2000/svg" viewBox="0 0 40 40" fill="currentColor"><defs><clipPath id="a"><path d="M0 0h40v40H0z" data-name="Rectangle 284" transform="translate(255 2400)"/></clipPath></defs><g clip-path="url(#a)" data-name="Mask Group 59" transform="translate(-255 -2400)"><g data-name="Group 887"><g data-name="Group 887"><path d="M274.358 2405.836h4.721v4.721h-4.721z" data-name="Rectangle 313"/><path d="M274.358 2412.446h4.721v4.721h-4.721z" data-name="Rectangle 316"/><path d="M274.358 2420h4.721v4.721h-4.721z" data-name="Rectangle 318"/><path d="M260.194 2415.279h4.721V2420h-4.721z" data-name="Rectangle 319"/><path d="M260.194 2422.833h4.721v4.721h-4.721z" data-name="Rectangle 320"/><path d="M283.801 2405.836h4.721v4.721h-4.721z" data-name="Rectangle 314"/><path d="M283.801 2412.446h4.721v4.721h-4.721z" data-name="Rectangle 315"/><path d="M283.801 2420h4.721v4.721h-4.721z" data-name="Rectangle 317"/></g><path d="M269.164 2400.642h24.552v38.716H255v-29.273h14.164zm23.608.944h-22.663v9.443h-14.165v27.385h36.828zm-18.886 3.777h5.666v5.666h-5.666zm4.721.944h-3.777v3.778h3.777zm4.721-.944h5.666v5.666h-5.665zm4.721.944h-3.776v3.778h3.777zm-14.163 6.135h5.666v5.666h-5.666zm4.721.944h-3.777v3.777h3.777zm4.721-.944h5.666v5.666h-5.665zm4.721.944h-3.776v3.777h3.777zm-28.328 1.42h5.666v5.666h-5.666zm4.721.944h-3.776v3.777h3.777zm9.443 3.777h5.666v5.666h-5.665zm4.721.944h-3.776v3.777h3.777zm4.721-.944h5.666v5.666h-5.664zm4.721.944h-3.775v3.777h3.777zm-28.327 1.417h5.666v5.666h-5.666zm4.721.944h-3.776v3.777h3.777z"/></g><g data-name="Group 888"><path d="M281.872 2436.308h8.751v-9.79h-.866v8.924h-7.885z" data-name="Path 608"/></g></g></svg>