<svg xmlns="http://www.w3.org/2000/svg" viewBox="0 0 16 16" fill="currentColor"><defs><clipPath id="a"><path d="M0 0h16v16H0z" data-name="Rectangle 147" transform="translate(1845 393)"/></clipPath></defs><g clip-path="url(#a)" transform="translate(-1845 -393)"><path d="M1859.355 397.741c.01.142.01.284.01.426a9.266 9.266 0 01-9.33 9.33 9.267 9.267 0 01-5.035-1.471 6.784 6.784 0 00.792.041 6.567 6.567 0 004.071-1.4 3.285 3.285 0 01-3.063-2.276 4.135 4.135 0 00.619.051 3.468 3.468 0 00.863-.112 3.28 3.28 0 01-2.632-3.218v-.041a3.3 3.3 0 001.482.416 3.284 3.284 0 01-1.015-4.385 9.321 9.321 0 006.761 3.431 3.7 3.7 0 01-.078-.751 3.282 3.282 0 015.675-2.244 6.456 6.456 0 002.078-.789 3.27 3.27 0 01-1.441 1.8 6.574 6.574 0 001.888-.5 7.049 7.049 0 01-1.645 1.7z" data-name="Icon awesome-twitter"/></g></svg>